<?xml version="1.0" encoding="utf-8"?>
<!-- Generator: Adobe Illustrator 18.1.1, SVG Export Plug-In . SVG Version: 6.00 Build 0)  -->
<svg version="1.1" id="Layer_1" xmlns="http://www.w3.org/2000/svg" xmlns:xlink="http://www.w3.org/1999/xlink" x="0px" y="0px"
	 viewBox="328 -73 100 100" enable-background="new 328 -73 100 100" xml:space="preserve">
<g>
	<path fill="#FFFFFF" d="M425.3-30.5c0,1.2-0.5,2.4-1.2,3.1l-43,43c-1.7,1.7-4.6,1.7-6.2,0l-43-43c-1.7-1.7-1.7-4.6,0-6.2
		c1.7-1.7,4.6-1.7,6.2,0l39.8,39.8l39.6-39.8c1.7-1.7,4.6-1.7,6.2,0C424.8-32.7,425.3-31.7,425.3-30.5z"/>
	<path fill="#FFFFFF" d="M425.3-58.5c0,1.2-0.5,2.4-1.2,3.1l-43,43c-1.7,1.7-4.6,1.7-6.2,0l-43-43c-1.7-1.7-1.7-4.6,0-6.2
		c1.7-1.7,4.6-1.7,6.2,0l39.8,39.8l39.6-39.8c1.7-1.7,4.6-1.7,6.2,0C424.8-60.7,425.3-59.7,425.3-58.5z"/>
</g>
</svg>
