<svg xmlns="http://www.w3.org/2000/svg" viewBox="0 0 74.2 74.2"><path fill="#ffffff" d="M64 57.5c0.6-0.8 1.2-1.6 1.7-2.5 -1.8-1-2.9-2.3-2.6-2.8 0.3-0.5 3.1 0.5 3.8 0.9 1.2-2.3 2.2-4.7 2.9-7.2 0.7-2.5 1-5 1.1-7.5 -0.7 0-3.7-0.5-3.7-1.1 0-0.6 1.7-1.1 3.7-1.1 0-1-0.1-2.1-0.2-3.1 -0.5-4.1-1.7-8-3.7-11.6 -0.7 0.4-3.4 1.4-3.7 0.9 -0.3-0.5 0.9-1.8 2.6-2.8 -1.4-2.3-3-4.3-4.9-6.2 -1.8-1.8-3.8-3.3-5.9-4.7 -1 1.8-2.3 3-2.8 2.6 -0.5-0.3-0.1-2 0.9-3.8 -4.6-2.4-9.6-3.8-14.8-4 0 2-0.5 3.6-1.1 3.6 -0.6 0-1.1-2.8-1.1-3.6 -2.5 0.1-4.9 0.4-7.3 1.1 -2.6 0.7-5.1 1.6-7.4 2.9 1 1.8 1.4 3.4 0.9 3.7 -0.5 0.3-2.4-1.9-2.8-2.6 -3.5 2.2-6.6 5-9.1 8.3 -0.6 0.8-1.2 1.7-1.7 2.5 0 0 0 0 0 0l-1.1 1.9c0 0 0 0 0 0 -1.2 2.3-2.1 4.7-2.8 7.2 -0.7 2.5-1.1 5.1-1.1 7.7 0.8 0 3.6 0.5 3.6 1.1 0 0.6-1.6 1.1-3.6 1.1 0 1 0.1 2 0.2 3 0.5 4.2 1.8 8.1 3.8 11.8 0.8-0.4 3.4-1.3 3.7-0.8 0.3 0.5-0.8 1.8-2.6 2.8 1.4 2.2 3 4.2 4.8 6 1.8 1.8 3.8 3.4 6 4.7 1-1.8 2.3-3 2.8-2.6 0.5 0.3 0.1 2-0.9 3.8 4.5 2.4 9.6 3.8 14.7 3.9 0-2 0.5-3.6 1.1-3.6 0.6 0 1.1 2.8 1.1 3.6 2.5-0.1 4.9-0.4 7.3-1.1 2.6-0.7 5.1-1.7 7.5-2.9 -1-1.8-1.4-3.5-0.9-3.8 0.5-0.3 2.4 2 2.8 2.7C58.5 63.5 61.6 60.8 64 57.5zM37.1 73.9c-13.6 0-25.5-7.4-31.8-18.4 -3.1-5.4-4.9-11.7-4.9-18.3 0-20.3 16.4-36.7 36.7-36.7 13.6 0 25.5 7.4 31.8 18.4 3.1 5.4 4.9 11.7 4.9 18.3C73.9 57.4 57.4 73.9 37.1 73.9zM7.3 21.2c0.4-0.7 0.7-1.3 1.1-1.9 0.6 0.4 2.9 2.3 2.6 2.8C10.8 22.6 9.1 22.2 7.3 21.2z"/><path fill="none" stroke="#ffffff" stroke-width="0.75" stroke-miterlimit="10" d="M64 57.5c0.6-0.8 1.2-1.6 1.7-2.5 -1.8-1-2.9-2.3-2.6-2.8 0.3-0.5 3.1 0.5 3.8 0.9 1.2-2.3 2.2-4.7 2.9-7.2 0.7-2.5 1-5 1.1-7.5 -0.7 0-3.7-0.5-3.7-1.1 0-0.6 1.7-1.1 3.7-1.1 0-1-0.1-2.1-0.2-3.1 -0.5-4.1-1.7-8-3.7-11.6 -0.7 0.4-3.4 1.4-3.7 0.9 -0.3-0.5 0.9-1.8 2.6-2.8 -1.4-2.3-3-4.3-4.9-6.2 -1.8-1.8-3.8-3.3-5.9-4.7 -1 1.8-2.3 3-2.8 2.6 -0.5-0.3-0.1-2 0.9-3.8 -4.6-2.4-9.6-3.8-14.8-4 0 2-0.5 3.6-1.1 3.6 -0.6 0-1.1-2.8-1.1-3.6 -2.5 0.1-4.9 0.4-7.3 1.1 -2.6 0.7-5.1 1.6-7.4 2.9 1 1.8 1.4 3.4 0.9 3.7 -0.5 0.3-2.4-1.9-2.8-2.6 -3.5 2.2-6.6 5-9.1 8.3 -0.6 0.8-1.2 1.7-1.7 2.5 0 0 0 0 0 0l-1.1 1.9c0 0 0 0 0 0 -1.2 2.3-2.1 4.7-2.8 7.2 -0.7 2.5-1.1 5.1-1.1 7.7 0.8 0 3.6 0.5 3.6 1.1 0 0.6-1.6 1.1-3.6 1.1 0 1 0.1 2 0.2 3 0.5 4.2 1.8 8.1 3.8 11.8 0.8-0.4 3.4-1.3 3.7-0.8 0.3 0.5-0.8 1.8-2.6 2.8 1.4 2.2 3 4.2 4.8 6 1.8 1.8 3.8 3.4 6 4.7 1-1.8 2.3-3 2.8-2.6 0.5 0.3 0.1 2-0.9 3.8 4.5 2.4 9.6 3.8 14.7 3.9 0-2 0.5-3.6 1.1-3.6 0.6 0 1.1 2.8 1.1 3.6 2.5-0.1 4.9-0.4 7.3-1.1 2.6-0.7 5.1-1.7 7.5-2.9 -1-1.8-1.4-3.5-0.9-3.8 0.5-0.3 2.4 2 2.8 2.7C58.5 63.5 61.6 60.8 64 57.5zM37.1 73.9c-13.6 0-25.5-7.4-31.8-18.4 -3.1-5.4-4.9-11.7-4.9-18.3 0-20.3 16.4-36.7 36.7-36.7 13.6 0 25.5 7.4 31.8 18.4 3.1 5.4 4.9 11.7 4.9 18.3C73.9 57.4 57.4 73.9 37.1 73.9zM7.3 21.2c0.4-0.7 0.7-1.3 1.1-1.9 0.6 0.4 2.9 2.3 2.6 2.8C10.8 22.6 9.1 22.2 7.3 21.2z"/></svg>