<?xml version="1.0" encoding="utf-8"?>
<!-- Generator: Adobe Illustrator 19.0.1, SVG Export Plug-In . SVG Version: 6.00 Build 0)  -->
<svg version="1.1" id="Layer_1" xmlns="http://www.w3.org/2000/svg" xmlns:xlink="http://www.w3.org/1999/xlink" x="0px" y="0px"
	 viewBox="-209 211 180 180" style="enable-background:new -209 211 180 180;" xml:space="preserve">
<g>
	<path d="M-119,252.4l-72,27l21.6,90l9,2.5l-21.6-87.1l63-22.7l63,22.7l-21.6,87.1l9-2.5l21.6-90L-119,252.4z M-132,211
		c-8.6,0-8.6,8.6-8.6,8.6h42.5c0,0,0-8.6-8.6-8.6H-132z M-157.2,226.1V260l8.6-2.5v-22.7h59.4v22.7l8.6,2.5v-33.9H-157.2z
		 M-57.4,373.7c-7.6,5-11.2,9-27.7,9c-11.5,0-22.3-8.3-33.8-8.3c-11.2,0-22.7,8.3-33.8,8.3c-12.6,0-22.3-6.1-27.7-10.1
		c-7.2-4.3-10.8,3.6-5,7.6c0,0,10.8,10.8,33.5,10.8c12.2,0,20.9-8.3,33.1-8.3c12.6,0,21.2,8.3,33.8,8.3c21.2,0,33.8-10.8,33.8-10.8
		C-45.9,375.9-52,369-57.4,373.7z"/>
	<path d="M-119,299.9c-3.2,0-6.5-1.4-8.3-4c-1.8-2.2-2.5-5-2.2-7.9c0.4-2.9,1.8-5.4,4-6.8c4.3-3.6,11.2-2.5,14.8,1.8
		c1.8,2.2,2.5,5,2.2,7.9c-0.4,2.9-1.8,5.4-4,6.8C-114.3,299.2-116.8,299.9-119,299.9z M-119,286.2c-0.4,0-1.4,0-2.2,0.7
		c-0.7,0.7-1.1,1.4-1.4,2.2c0,0.7,0,1.8,0.7,2.5c0.7,0.7,1.4,1.4,2.5,1.4c0.4,0,1.4,0,2.2-0.7c0.7-0.7,1.1-1.4,1.4-2.2
		c0-0.7,0-1.8-0.7-2.5C-117.2,286.6-117.9,286.2-119,286.2z"/>
	<path d="M-119,299.9c-3.2,0-6.5-1.4-8.3-4c-1.8-2.2-2.5-5-2.2-7.9c0.4-2.5,1.8-5,4-6.8c4.3-3.6,11.2-2.5,14.8,1.8
		c1.8,2.2,2.5,5,2.2,7.9c-0.4,2.9-1.8,5.4-4,6.8C-114.7,299.2-116.8,299.9-119,299.9z M-119,286.2c-0.4,0-1.4,0-2.2,0.7
		c-0.7,0.7-1.1,1.4-1.4,2.2c0,0.7,0,1.8,0.7,2.5c0.7,0.7,1.4,1.4,2.5,1.4c0.4,0,1.4,0,2.2-0.7c0.7-0.7,1.1-1.4,1.4-2.2
		c0-0.7,0-1.8-0.7-2.5C-117.2,286.6-118.3,286.2-119,286.2z"/>
</g>
</svg>
