<svg version="1.1" xmlns="http://www.w3.org/2000/svg"
	 viewBox="0 0 40 50">
	 <g fill="#ffffff">
<path fill-rule="evenodd" clip-rule="evenodd" d="M20,11.5L0,19l6,25l2.5,0.7l-6-24.2L20,14.2l17.5,6.3l-6,24.2L34,44l6-25L20,11.5z
	 M16.4,0c-2.4,0-2.4,2.4-2.4,2.4h11.8c0,0,0-2.4-2.4-2.4H16.4z M9.4,4.2v9.4l2.4-0.7V6.6h16.5v6.3l2.4,0.7V4.2H9.4z M37.1,45.2
	c-2.1,1.4-3.1,2.5-7.7,2.5c-3.2,0-6.2-2.3-9.4-2.3c-3.1,0-6.3,2.3-9.4,2.3c-3.5,0-6.2-1.7-7.7-2.8c-2-1.2-3,1-1.4,2.1c0,0,3,3,9.3,3
	c3.4,0,5.8-2.3,9.2-2.3c3.5,0,5.9,2.3,9.4,2.3c5.9,0,9.4-3,9.4-3C40.3,45.8,38.6,43.9,37.1,45.2z"/>
<path d="M29.1,24.7c-0.9,0-1.8-0.4-2.3-1.1c-0.5-0.6-0.7-1.4-0.6-2.2c0.1-0.8,0.5-1.5,1.1-1.9c1.2-1,3.1-0.7,4.1,0.5
	c0.5,0.6,0.7,1.4,0.6,2.2c-0.1,0.8-0.5,1.5-1.1,1.9C30.4,24.5,29.7,24.7,29.1,24.7z M29.1,20.9c-0.1,0-0.4,0-0.6,0.2
	c-0.2,0.2-0.3,0.4-0.4,0.6c0,0.2,0,0.5,0.2,0.7c0.2,0.2,0.4,0.4,0.7,0.4c0.1,0,0.4,0,0.6-0.2c0.2-0.2,0.3-0.4,0.4-0.6
	c0-0.2,0-0.5-0.2-0.7C29.6,21,29.4,20.9,29.1,20.9z"/>
<path d="M10.8,24.7c-0.9,0-1.8-0.4-2.3-1.1C8,23,7.8,22.2,7.9,21.4C8,20.7,8.4,20,9,19.5c1.2-1,3.1-0.7,4.1,0.5
	c0.5,0.6,0.7,1.4,0.6,2.2c-0.1,0.8-0.5,1.5-1.1,1.9C12,24.5,11.4,24.7,10.8,24.7z M10.8,20.9c-0.1,0-0.4,0-0.6,0.2
	c-0.2,0.2-0.3,0.4-0.4,0.6c0,0.2,0,0.5,0.2,0.7c0.2,0.2,0.4,0.4,0.7,0.4c0.1,0,0.4,0,0.6-0.2c0.2-0.2,0.3-0.4,0.4-0.6
	c0-0.2,0-0.5-0.2-0.7C11.3,21,11,20.9,10.8,20.9z"/>
</g>
</svg>
