<?xml version="1.0" encoding="utf-8"?>
<!-- Generator: Adobe Illustrator 18.1.1, SVG Export Plug-In . SVG Version: 6.00 Build 0)  -->
<svg version="1.1" id="Layer_1" xmlns="http://www.w3.org/2000/svg" xmlns:xlink="http://www.w3.org/1999/xlink" x="0px" y="0px"
	 viewBox="780 0 180 180" enable-background="new 780 0 180 180" xml:space="preserve">
<g>
	<circle fill="#FFFFFF" cx="870" cy="90" r="90"/>
	<path d="M870,59.2l-45.7,17.1l13.7,57.1l5.7,1.6L830,79.7l40-14.4l40,14.4L896.3,135l5.7-1.6l13.7-57.1L870,59.2z M861.8,32.9
		c-5.5,0-5.5,5.5-5.5,5.5h27c0,0,0-5.5-5.5-5.5C877.8,32.9,861.8,32.9,861.8,32.9z M845.8,42.5v21.5l5.5-1.6V47.9H889v14.4l5.5,1.6
		V42.5H845.8z M909.1,136.2c-4.8,3.2-7.1,5.7-17.6,5.7c-7.3,0-14.2-5.3-21.5-5.3c-7.1,0-14.4,5.3-21.5,5.3c-8,0-14.2-3.9-17.6-6.4
		c-4.6-2.7-6.9,2.3-3.2,4.8c0,0,6.9,6.9,21.3,6.9c7.8,0,13.3-5.3,21-5.3c8,0,13.5,5.3,21.5,5.3c13.5,0,21.5-6.9,21.5-6.9
		C916.4,137.5,912.5,133.2,909.1,136.2z"/>
	<path d="M890.9,87.3c-2,0-4.1-0.9-5.3-2.5c-1.1-1.4-1.6-3.2-1.4-5c0.2-1.8,1.1-3.4,2.5-4.3c2.7-2.3,7.1-1.6,9.4,1.1
		c1.1,1.4,1.6,3.2,1.4,5c-0.2,1.8-1.1,3.4-2.5,4.3C893.9,86.8,892.3,87.3,890.9,87.3z M890.9,78.6c-0.2,0-0.9,0-1.4,0.5
		c-0.5,0.4-0.7,0.9-0.9,1.4c0,0.5,0,1.1,0.4,1.6c0.5,0.4,0.9,0.9,1.6,0.9c0.2,0,0.9,0,1.4-0.4c0.5-0.5,0.7-0.9,0.9-1.4
		c0-0.4,0-1.1-0.5-1.6C892,78.8,891.6,78.6,890.9,78.6z"/>
	<path d="M849.1,87.3c-2,0-4.1-0.9-5.3-2.5c-1.1-1.4-1.6-3.2-1.4-5c0.2-1.6,1.1-3.2,2.5-4.3c2.7-2.3,7.1-1.6,9.4,1.1
		c1.1,1.4,1.6,3.2,1.4,5c-0.2,1.8-1.1,3.4-2.5,4.3S850.4,87.3,849.1,87.3z M849.1,78.6c-0.2,0-0.9,0-1.4,0.5
		c-0.5,0.4-0.7,0.9-0.9,1.4c0,0.5,0,1.1,0.4,1.6c0.5,0.4,0.9,0.9,1.6,0.9c0.2,0,0.9,0,1.4-0.4c0.5-0.5,0.7-0.9,0.9-1.4
		c0-0.4,0-1.1-0.5-1.6C850.2,78.8,849.5,78.6,849.1,78.6z"/>
</g>
</svg>
