<?xml version="1.0" encoding="utf-8"?>
<!-- Generator: Adobe Illustrator 18.1.1, SVG Export Plug-In . SVG Version: 6.00 Build 0)  -->
<svg version="1.1" id="Layer_1" xmlns="http://www.w3.org/2000/svg" xmlns:xlink="http://www.w3.org/1999/xlink" x="0px" y="0px"
	 viewBox="780 0 180 180" enable-background="new 780 0 180 180" xml:space="preserve">
<g>
	<path fill="#FFFFFF" d="M870,41.4l-72,27l21.6,90l9,2.5L807,73.8l63-22.7l63,22.7l-21.6,87.1l9-2.5l21.6-90L870,41.4z M857,0
		c-8.6,0-8.6,8.6-8.6,8.6h42.5c0,0,0-8.6-8.6-8.6H857z M831.8,15.1V49l8.6-2.5V23.8h59.4v22.7l8.6,2.5V15.1H831.8z M931.6,162.7
		c-7.6,5-11.2,9-27.7,9c-11.5,0-22.3-8.3-33.8-8.3c-11.2,0-22.7,8.3-33.8,8.3c-12.6,0-22.3-6.1-27.7-10.1c-7.2-4.3-10.8,3.6-5,7.6
		c0,0,10.8,10.8,33.5,10.8c12.2,0,20.9-8.3,33.1-8.3c12.6,0,21.2,8.3,33.8,8.3c21.2,0,33.8-10.8,33.8-10.8
		C943.1,164.9,937,158,931.6,162.7z"/>
	<path fill="#FFFFFF" d="M870,88.9c-3.2,0-6.5-1.4-8.3-4c-1.8-2.2-2.5-5-2.2-7.9c0.4-2.9,1.8-5.4,4-6.8c4.3-3.6,11.2-2.5,14.8,1.8
		c1.8,2.2,2.5,5,2.2,7.9c-0.4,2.9-1.8,5.4-4,6.8C874.7,88.2,872.2,88.9,870,88.9z M870,75.2c-0.4,0-1.4,0-2.2,0.7
		c-0.7,0.7-1.1,1.4-1.4,2.2c0,0.7,0,1.8,0.7,2.5c0.7,0.7,1.4,1.4,2.5,1.4c0.4,0,1.4,0,2.2-0.7c0.7-0.7,1.1-1.4,1.4-2.2
		c0-0.7,0-1.8-0.7-2.5C871.8,75.6,871.1,75.2,870,75.2z"/>
	<path fill="#FFFFFF" d="M870,88.9c-3.2,0-6.5-1.4-8.3-4c-1.8-2.2-2.5-5-2.2-7.9c0.4-2.5,1.8-5,4-6.8c4.3-3.6,11.2-2.5,14.8,1.8
		c1.8,2.2,2.5,5,2.2,7.9c-0.4,2.9-1.8,5.4-4,6.8C874.3,88.2,872.2,88.9,870,88.9z M870,75.2c-0.4,0-1.4,0-2.2,0.7
		c-0.7,0.7-1.1,1.4-1.4,2.2c0,0.7,0,1.8,0.7,2.5c0.7,0.7,1.4,1.4,2.5,1.4c0.4,0,1.4,0,2.2-0.7c0.7-0.7,1.1-1.4,1.4-2.2
		c0-0.7,0-1.8-0.7-2.5C871.8,75.6,870.7,75.2,870,75.2z"/>
</g>
</svg>
