<?xml version="1.0" encoding="utf-8"?>
<!-- Generator: Adobe Illustrator 18.1.1, SVG Export Plug-In . SVG Version: 6.00 Build 0)  -->
<svg version="1.1" id="Layer_1" xmlns="http://www.w3.org/2000/svg" xmlns:xlink="http://www.w3.org/1999/xlink" x="0px" y="0px"
	 viewBox="0 0 180 180" enable-background="new 0 0 180 180" xml:space="preserve">
<path d="M153,159c-1.5,0-3.1-0.6-4.2-1.8l-126-126c-2.3-2.3-2.3-6.1,0-8.5c2.3-2.3,6.1-2.3,8.5,0l126,126c2.3,2.3,2.3,6.1,0,8.5
	C156.1,158.4,154.5,159,153,159z"/>
<path d="M27,159c-1.5,0-3.1-0.6-4.2-1.8c-2.3-2.3-2.3-6.1,0-8.5l126-126c2.3-2.3,6.1-2.3,8.5,0c2.3,2.3,2.3,6.1,0,8.5l-126,126
	C30.1,158.4,28.5,159,27,159z"/>
</svg>
