<svg xmlns="http://www.w3.org/2000/svg" xmlns:xlink="http://www.w3.org/1999/xlink" version="1.1" x="0px" y="0px" viewBox="0 0 100 100" enable-background="new 0 0 100 100" xml:space="preserve"><polygon fill="#000000" points="228.1,507.6 258.9,496.6 228.1,480.4 228.3,369.3 168.6,369.2 170.7,354.8 170.7,354.8 161.6,369.3   73.8,369.1 73.5,523.6 145.7,523.7 131.1,543.1 184.9,523.8 228.1,523.8 "></polygon><path d="M84.9,81.7H18.3V58.4l7.4-3c1.8,2.3,4.7,3.8,7.8,3.8c2.4,0,4.7-0.9,6.4-2.3l6.7,4.5c-0.3,1-0.5,2-0.5,3.1  c0,5.5,4.5,10,10,10s10-4.5,10-10c0-2.4-0.9-4.7-2.3-6.4L74,42.9c1,0.3,2,0.5,3,0.5c5.5,0,10-4.5,10-10s-4.5-10-10-10s-10,4.5-10,10  c0,2.4,0.9,4.7,2.3,6.4L59.2,54.9c-1-0.3-2-0.5-3-0.5c-2.4,0-4.7,0.9-6.4,2.3L43,52.2c0.3-1,0.5-2,0.5-3.1c0-5.5-4.5-10-10-10  s-10,4.5-10,10c0,0.4,0,0.7,0.1,1.1l-5.3,2.2V15.1c0-1.8-1.4-3.2-3.2-3.2s-3.2,1.4-3.2,3.2v69.9c0,1.8,1.4,3.2,3.2,3.2h69.9  c1.8,0,3.2-1.4,3.2-3.2S86.7,81.7,84.9,81.7z M77.1,29c2.4,0,4.4,2,4.4,4.4s-2,4.4-4.4,4.4s-4.4-2-4.4-4.4S74.6,29,77.1,29z   M56.1,60c2.4,0,4.4,2,4.4,4.4c0,2.4-2,4.4-4.4,4.4c-2.4,0-4.4-2-4.4-4.4C51.7,62,53.7,60,56.1,60z M33.5,44.7c2.4,0,4.4,2,4.4,4.4  c0,2.4-2,4.4-4.4,4.4s-4.4-2-4.4-4.4C29.1,46.7,31.1,44.7,33.5,44.7z"></path></svg>