<?xml version="1.0" encoding="utf-8"?>
<!-- Generator: Adobe Illustrator 19.0.1, SVG Export Plug-In . SVG Version: 6.00 Build 0)  -->
<svg version="1.1" id="White" xmlns="http://www.w3.org/2000/svg" xmlns:xlink="http://www.w3.org/1999/xlink" x="0px" y="0px"
	 viewBox="207 -207 514 514" style="enable-background:new 207 -207 514 514;" xml:space="preserve">
<style type="text/css">
	.st0{fill:#FFFFFF;}
</style>
<path id="White_2_" class="st0" d="M582.7-83.5H345.3c-8.1,0-14.7,6.6-14.7,14.7v237.4c0,8.1,6.6,14.7,14.7,14.7h127.8V80.1h-34.8
	V39.8h34.8V10.1c0-34.5,21.1-53.2,51.8-53.2c14.7,0,27.4,1.1,31.1,1.6v36h-21.3c-16.7,0-20,7.9-20,19.6v25.7h39.9l-5.2,40.3h-34.7
	v103.4h68c8.1,0,14.7-6.6,14.7-14.7V-68.7C597.4-76.9,590.8-83.5,582.7-83.5z"/>
<path class="st0" d="M464,307c-68.6,0-133.2-26.7-181.7-75.3C233.7,183.2,207,118.6,207,50s26.7-133.2,75.3-181.7
	C330.8-180.3,395.4-207,464-207s133.2,26.7,181.7,75.3C694.3-83.2,721-18.6,721,50c0,68.6-26.7,133.2-75.3,181.7S532.6,307,464,307z
	 M464-191C331.1-191,223-82.9,223,50s108.1,241,241,241S705,182.9,705,50S596.9-191,464-191z"/>
</svg>
