<?xml version="1.0" encoding="utf-8"?>
<!-- Generator: Adobe Illustrator 18.1.1, SVG Export Plug-In . SVG Version: 6.00 Build 0)  -->
<svg version="1.1" id="Layer_1" xmlns="http://www.w3.org/2000/svg" xmlns:xlink="http://www.w3.org/1999/xlink" x="0px" y="0px"
	 viewBox="0 0 218.3 180" enable-background="new 0 0 218.3 180" xml:space="preserve">
<g>
	<path fill="#FFFFFF" d="M129.6,161.1H17.8c-4.1,0-15,0-17.4-7.4c-2.3-6.9,5.2-13.2,7.6-14.9l0.7-0.5l29-9.9
		c6.7-2.3,10.8-5.6,12.3-9.8c2.4-6.9-2.3-15-3-16.1c-1.8-2.3-13-18.1-13-43.9C34,29.3,53.6,18.9,72,18.9c0.8,0,1.4,0,1.8,0
		c0.2,0,0.5,0,1,0c17.8,0,38.6,10.4,38.6,39.6c0,25.8-11.2,41.6-13,43.9c-0.7,1.1-5.4,9.2-3,16.1c1.5,4.3,5.6,7.6,12.3,9.8l29,9.9
		l0.7,0.5c2.4,1.8,9.9,8.1,7.6,14.9C144.6,161.1,133.7,161.1,129.6,161.1z M11.9,149.9c1.2,0.2,3.1,0.4,6,0.4h111.8
		c2.9,0,4.8-0.2,6-0.4c-0.6-0.7-1.3-1.4-2-2l-27.3-9.3c-10-3.4-16.4-9-19.1-16.6c-4.3-12.5,3.9-25.1,4.3-25.7l0.3-0.4
		c0.1-0.1,10.8-14,10.8-37.4c0-26.7-21.3-28.8-27.8-28.8l-1.4,0l-0.2,0c-0.1,0-0.5,0-1.2,0c-8.2,0-27.1,2.8-27.1,28.9
		c0,23.6,10.7,37.3,10.8,37.4l0.3,0.4c0.3,0.5,8.6,13.2,4.3,25.7c-2.6,7.6-9,13.2-19.1,16.6l-27.3,9.3
		C13.2,148.5,12.4,149.2,11.9,149.9z"/>
	<g>
		<path fill="#FFFFFF" d="M208.5,97.6l-74,0.4l9.7-11.7h74L208.5,97.6z"/>
		<path fill="#FFFFFF" d="M208.5,58.7l-74,0.4l9.7-11.7h74L208.5,58.7z"/>
		<path fill="#FFFFFF" d="M208.5,136.4l-48.8,0.4l9.7-11.7h48.8L208.5,136.4z"/>
	</g>
</g>
</svg>
