<?xml version="1.0" encoding="utf-8"?>
<!-- Generator: Adobe Illustrator 19.0.1, SVG Export Plug-In . SVG Version: 6.00 Build 0)  -->
<svg version="1.1" id="Layer_1" xmlns="http://www.w3.org/2000/svg" xmlns:xlink="http://www.w3.org/1999/xlink" x="0px" y="0px"
	 viewBox="259 -192.3 617.4 484.3" style="enable-background:new 259 -192.3 617.4 484.3;" xml:space="preserve">
<style type="text/css">
	.st0{fill:#FFFFFF;}
</style>
<g>
	<polygon class="st0" points="373.7,-98.6 373.7,-65.1 400.8,-65.1 400.8,-75.6 736.6,-75.6 736.6,175 724.3,175 724.3,197.9 
		763.7,197.9 763.7,-98.6 	"/>
	<polygon class="st0" points="425.2,-143.4 425.2,-109.9 452.4,-109.9 452.4,-120.4 788,-120.4 788,130.2 775.8,130.2 775.8,153.1 
		815.2,153.1 815.2,-143.4 	"/>
	<path class="st0" d="M320.2-52v295.1h390V-52H320.2z M344.6-27.4h341.3v245.9h-5.4L564,71l-26.6,33.8l89.9,113.7h-48.8L442.1,46.4
		l-97.5,123V-27.4z"/>
</g>
</svg>
