<svg xmlns="http://www.w3.org/2000/svg" version="1.1" viewBox="0 0 72 64"><path fill="white" stroke="white" d="M18.8 10.9c-2.6 0-4.7 2.1-4.7 4.7 0 2.6 2.1 4.7 4.7 4.7 2.6 0 4.7-2.1 4.7-4.7C23.4 13 21.3 10.9 18.8 10.9zM18.8 23.4c-4.3 0-7.8-3.5-7.8-7.8 0-4.3 3.5-7.8 7.8-7.8 4.3 0 7.8 3.5 7.8 7.8C26.6 19.9 23.1 23.4 18.8 23.4zM18.8 31.2c-0.9 0-1.6-0.7-1.6-1.6v-3.1c0-0.9 0.7-1.6 1.6-1.6 0.9 0 1.6 0.7 1.6 1.6v3.1C20.3 30.6 19.6 31.2 18.8 31.2zM18.8 6.2c-0.9 0-1.6-0.7-1.6-1.6V1.6c0-0.9 0.7-1.6 1.6-1.6 0.9 0 1.6 0.7 1.6 1.6v3.1C20.3 5.6 19.6 6.2 18.8 6.2zM32.8 17.2h-3.1c-0.9 0-1.6-0.7-1.6-1.6 0-0.9 0.7-1.6 1.6-1.6h3.1c0.9 0 1.6 0.7 1.6 1.6C34.4 16.5 33.7 17.2 32.8 17.2zM7.8 17.2H4.7c-0.9 0-1.6-0.7-1.6-1.6 0-0.9 0.7-1.6 1.6-1.6h3.1c0.9 0 1.6 0.7 1.6 1.6C9.4 16.5 8.7 17.2 7.8 17.2zM28.7 27.1c-0.4 0-0.8-0.2-1.1-0.5l-2.2-2.2c-0.6-0.6-0.6-1.6 0-2.2 0.6-0.6 1.6-0.6 2.2 0l2.2 2.2c0.6 0.6 0.6 1.6 0 2.2C29.5 27 29.1 27.1 28.7 27.1L28.7 27.1zM11 9.5c-0.4 0-0.8-0.2-1.1-0.5L7.7 6.8c-0.6-0.6-0.6-1.6 0-2.2C8.3 4 9.3 4 9.9 4.6l2.2 2.2c0.6 0.6 0.6 1.6 0 2.2C11.8 9.3 11.4 9.5 11 9.5L11 9.5zM26.5 9.5c-0.4 0-0.8-0.2-1.1-0.5 -0.6-0.6-0.6-1.6 0-2.2l2.2-2.2c0.6-0.6 1.6-0.6 2.2 0 0.6 0.6 0.6 1.6 0 2.2L27.6 9C27.3 9.3 26.9 9.5 26.5 9.5L26.5 9.5zM8.8 27.1c-0.4 0-0.8-0.2-1.1-0.5 -0.6-0.6-0.6-1.6 0-2.2l2.2-2.2c0.6-0.6 1.6-0.6 2.2 0 0.6 0.6 0.6 1.6 0 2.2l-2.2 2.2C9.6 27 9.2 27.1 8.8 27.1L8.8 27.1zM70.3 64.1H1.6c-0.9 0-1.6-0.7-1.6-1.6 0-0.9 0.7-1.6 1.6-1.6h68.8c0.9 0 1.6 0.7 1.6 1.6C71.9 63.4 71.2 64.1 70.3 64.1zM21.9 62.5c-0.9 0-1.6-0.7-1.6-1.6V45.3c0-0.9 0.7-1.6 1.6-1.6 0.9 0 1.6 0.7 1.6 1.6v15.6C23.4 61.8 22.7 62.5 21.9 62.5zM11.5 57.3c-0.4 0-0.8-0.2-1.1-0.5 -0.6-0.6-0.6-1.6 0-2.2L28 36.9c0.6-0.6 1.6-0.6 2.2 0 0.6 0.6 0.6 1.6 0 2.2L12.6 56.8C12.3 57.1 11.9 57.3 11.5 57.3L11.5 57.3zM40.6 62.5c-0.9 0-1.6-0.7-1.6-1.6V45.3c0-0.9 0.7-1.6 1.6-1.6 0.9 0 1.6 0.7 1.6 1.6v15.6C42.2 61.8 41.5 62.5 40.6 62.5zM30.2 57.3c-0.4 0-0.8-0.2-1.1-0.5 -0.6-0.6-0.6-1.6 0-2.2l17.7-17.7c0.6-0.6 1.6-0.6 2.2 0 0.6 0.6 0.6 1.6 0 2.2L31.3 56.8C31 57.1 30.6 57.3 30.2 57.3L30.2 57.3zM59.4 62.5c-0.9 0-1.6-0.7-1.6-1.6V45.3c0-0.9 0.7-1.6 1.6-1.6 0.9 0 1.6 0.7 1.6 1.6v15.6C60.9 61.8 60.2 62.5 59.4 62.5zM49 57.3c-0.4 0-0.8-0.2-1.1-0.5 -0.6-0.6-0.6-1.6 0-2.2l17.7-17.7c0.6-0.6 1.6-0.6 2.2 0 0.6 0.6 0.6 1.6 0 2.2L50.1 56.8C49.8 57.1 49.4 57.3 49 57.3L49 57.3z"/></svg>