<svg xmlns="http://www.w3.org/2000/svg" version="1.1" viewBox="0 0 1024 1024"><path fill="white" d="M960 192h-28.4c-16.8 0-32.9 6.6-44.9 18.4l-86.7 85.5v-39.9c0-53-43-96-96-96h-608c-52.9 0-96 43-96 96v512c0 53 43 96 96 96h608c53 0 96-43 96-96v-39.1l86.7 85.5c12 11.8 28.1 18.4 44.9 18.4h28.4c35.3 0 64-28.6 64-64v-512.9c0-35.4-28.7-64-64-64zM96 800c-17.7 0-32-14.4-32-32v-512c0-17.7 14.3-32 32-32h608c17.6 0 32 14.3 32 32v512c0 17.6-14.4 32-32 32h-608zM960 768.9h-32l-128-128v-0.9l-32-32v-192l160-160h32v512.9z"/></svg>