<svg xmlns="http://www.w3.org/2000/svg" version="1.1" viewBox="0 0 75 73" xml:space="preserve"><path stroke="white" fill="white" d="M3.1 70.1H25v-8.3L3.1 49.4V70.1L3.1 70.1zM26.6 73.3h-25c-0.9 0-1.6-0.7-1.6-1.6v-25c0-0.6 0.3-1.1 0.8-1.4 0.5-0.3 1.1-0.3 1.6 0l25 14.3c0.5 0.3 0.8 0.8 0.8 1.4v10.7C28.1 72.6 27.4 73.3 26.6 73.3L26.6 73.3zM28.1 70.1H50v-8.3L28.1 49.4V70.1L28.1 70.1zM51.6 73.3h-25c-0.9 0-1.6-0.7-1.6-1.6v-25c0-0.6 0.3-1.1 0.8-1.4 0.5-0.3 1.1-0.3 1.6 0l25 14.3c0.5 0.3 0.8 0.8 0.8 1.4v10.7C53.1 72.6 52.4 73.3 51.6 73.3L51.6 73.3zM53.3 70.1h18.5l-4.4-50h-9.6L53.3 70.1 53.3 70.1zM73.5 73.3C73.5 73.3 73.5 73.3 73.5 73.3H51.6c-0.4 0-0.9-0.2-1.2-0.5C50.1 72.4 50 72 50 71.6l4.7-53.1c0.1-0.8 0.7-1.4 1.6-1.4h12.5c0.8 0 1.5 0.6 1.6 1.4L75 71.1c0.1 0.2 0.1 0.4 0.1 0.6C75.1 72.6 74.4 73.3 73.5 73.3L73.5 73.3zM60.5 13.4c-0.2 0-0.5-0.1-0.7-0.2 -2.9-1.5-1.6-4.9-0.7-7.1 0.3-0.9 1-2.7 0.8-3.2 -0.8-0.4-1.1-1.4-0.7-2.1 0.4-0.8 1.3-1.1 2.1-0.7C64.1 1.7 62.8 5 62 7.3c-0.3 0.9-1 2.7-0.8 3.2 0.8 0.4 1.1 1.4 0.7 2.1C61.6 13.1 61.1 13.4 60.5 13.4zM67.1 13.4c-0.2 0-0.5-0.1-0.8-0.2 -0.9-0.5-1.5-1.1-1.7-1.9 -0.4-1.4 0.4-2.7 1.1-3.7 0.3-0.4 0.7-1.1 0.7-1.3 -0.8-0.4-1.1-1.3-0.7-2.1 0.4-0.8 1.3-1 2.1-0.6 0.9 0.5 1.5 1.1 1.7 1.9 0.4 1.4-0.4 2.7-1.1 3.7 -0.3 0.4-0.7 1.1-0.7 1.3 0.8 0.4 1.1 1.3 0.7 2.1C68.1 13.1 67.6 13.4 67.1 13.4L67.1 13.4z"/></svg>