<svg xmlns="http://www.w3.org/2000/svg" version="1.1" viewBox="0 0 46.9 72.7"><path stroke="white" fill="white" d="M23.4 50.4c6.2 0 12.3 0 20.3 0.1l0-31.9c-8.3-1.8-14.5-2.5-20.3-2.5 -5.8 0-12 0.7-20.3 2.5l0 31.9C11.1 50.4 17.3 50.4 23.4 50.4L23.4 50.4zM45.3 53.6C45.3 53.6 45.3 53.6 45.3 53.6c-17.5-0.1-26.3-0.1-43.7 0 -0.3 0.1-0.8-0.2-1.1-0.5C0.2 52.9 0 52.5 0 52.1l0-34.7c0-0.7 0.5-1.4 1.2-1.5 9.2-2 15.9-2.8 22.2-2.8 6.4 0 13 0.8 22.2 2.8 0.7 0.2 1.2 0.8 1.2 1.5l0 34.7c0 0.4-0.2 0.8-0.5 1.1C46.1 53.5 45.7 53.6 45.3 53.6zM42.2 17.7c-0.9 0-1.6-0.7-1.6-1.6V4.8c-5.7-1.2-11.2-1.7-17.2-1.7 -6.8 0-13.9 0.7-17.2 1.5v11.5c0 0.9-0.7 1.6-1.6 1.6S3.1 17 3.1 16.1V3.5c0-0.6 0.4-1.2 1-1.4C7.5 0.7 16.4 0 23.5 0c6.6 0 12.7 0.6 19.1 2 0.7 0.2 1.2 0.8 1.2 1.5v12.6C43.8 17 43.1 17.7 42.2 17.7zM23.5 24c-3.4 0-6.2 2.8-6.2 6.2 0 3.4 2.8 6.2 6.2 6.2s6.2-2.8 6.2-6.2C29.7 26.8 26.9 24 23.5 24zM23.5 39.6c-5.2 0-9.4-4.2-9.4-9.4s4.2-9.4 9.4-9.4 9.4 4.2 9.4 9.4S28.6 39.6 23.5 39.6zM3.1 57.2L23.5 63l20.3-5.8v-3.5H3.1V57.2zM23.5 66.1c-0.1 0-0.3 0-0.4-0.1L1.1 59.8C0.5 59.6 0 59 0 58.3v-6.2c0-0.9 0.7-1.6 1.6-1.6h43.8c0.9 0 1.6 0.7 1.6 1.6v6.2c0 0.7-0.5 1.3-1.1 1.5l-21.9 6.2C23.7 66.1 23.6 66.1 23.5 66.1z"/><rect fill="white" stroke="white" x="21.9" y="0.5" width="3.1" height="12.5"/><rect fill="white" stroke="white" x="2.7" y="59.3" transform="matrix(-0.9811 -0.1936 0.1936 -0.9811 -4.4045 131.4106)" width="3.1" height="13.2"/><rect fill="white" stroke="white" x="35.3" y="63.4" transform="matrix(-0.1939 -0.981 0.981 -0.1939 -13.6852 118.6701)" width="13.2" height="3.1"/><rect fill="white" stroke="white" x="6.3" y="53.6" width="3.1" height="6.2"/><rect fill="white" stroke="white" x="12.5" y="53.6" width="3.1" height="9.4"/><rect fill="white" stroke="white" x="18.8" y="53.6" width="3.1" height="9.4"/><rect fill="white" stroke="white" x="25" y="53.6" width="3.1" height="9.4"/><rect fill="white" stroke="white" x="31.3" y="53.6" width="3.1" height="9.4"/><rect fill="white" stroke="white" x="37.5" y="53.6" width="3.1" height="6.2"/></svg>