
<svg version="1.1"  xmlns="http://www.w3.org/2000/svg"
	 viewBox="0 0 71.5 71.5">
<path  stroke="#FFFFFF" stroke-width="4" fill="transparent" stroke-miterlimit="10" d="M65.7,2
	c-0.7,0-1.4,0.1-2.2,0.3c-2,0.5-4.3,1.8-6.3,3.8l-11,11L7.5,13.2c-0.2,0-0.4,0.1-0.5,0.2l-4.8,4.8c-0.3,0.3-0.2,0.8,0.2,1l28.8,12.9
	l-6.5,6.5c-1.3,1.3-2.4,2.9-2.7,3.4l-12-1.2c-0.2,0-0.4,0.1-0.5,0.2l-3.8,3.8c-0.3,0.3-0.2,0.8,0.2,1L19.5,52l6.2,13.6
	c0.2,0.4,0.7,0.5,1,0.2l3.8-3.8c0.1-0.1,0.2-0.3,0.2-0.5l-1.2-12c0.4-0.3,2.1-1.4,3.4-2.7l6.5-6.5l13,28.9c0.2,0.4,0.7,0.5,1,0.2
	l4.8-4.8c0.1-0.1,0.2-0.3,0.2-0.5l-3.9-38.7l11-11c2-2,3.3-4.3,3.8-6.3c0.5-2,0.4-3.9-0.7-4.9C67.8,2.4,66.8,2,65.7,2z"/>
</svg>
