<svg xmlns="http://www.w3.org/2000/svg" viewBox="0 0 75 75"><path fill="#ffffff" fill-rule="evenodd" clip-rule="evenodd" d="M58.1 45h-11.2L45 48.8h11.3L61.9 60h-48.7l5.6-11.2H30L28.1 45h-11.2L5.6 63.8h63.8L58.1 45zM37.5 20.6c2.1 0 3.8 1.7 3.8 3.8s-1.7 3.8-3.7 3.8c-2.1 0-3.7-1.7-3.7-3.7S35.4 20.6 37.5 20.6zM36.4 50.6C32.8 50.8 30 51.9 30 53.4s3.4 2.8 7.5 2.8 7.5-1.3 7.5-2.8c0-1.3-2.8-2.6-6.4-2.8 2.1-4.3 8.3-16.7 11.1-23.4 0 0 0.9-2.4 0.9-4.1 0-6.6-5.8-11.8-13.1-11.8 -7.3 0-13.1 5.3-13.1 11.8 0 1.7 0.9 4.1 0.9 4.1C28.1 33.9 34.3 46.3 36.4 50.6z"/></svg>
