<svg xmlns="http://www.w3.org/2000/svg" version="1.1" viewBox="0 0 66 75" xml:space="preserve"><path fill="white" stroke="white" d="M58.9 32.3v37.8h-54V9.2h13.6c0 0 0 0 0 0 0 2.6 2.1 4.7 4.7 4.7h7c0-0.1 0-0.3 0-0.4V4.3H6.9C3.1 4.3 0 7.4 0 11.2v56.9C0 71.9 3.1 75 6.9 75h50c3.8 0 6.9-3.1 6.9-6.9V27.3C61.9 29.5 61.5 30.4 58.9 32.3zM19.1 37.9c0-2.9 2.3-5.2 5.2-5.2 2.9 0 5.2 2.3 5.2 5.2 0 2.9-2.3 5.2-5.2 5.2C21.4 43.1 19.1 40.8 19.1 37.9zM63 0c-0.1 0-0.3 0-0.4 0 -0.1 0-0.3 0-0.4 0H57c-1.4 0-2.6 1.2-2.6 2.6 0 1.4 1.2 2.6 2.6 2.6h3.4v10.3c0 5.7-4.6 10.3-10.3 10.3h-1.7c-5.7 0-10.3-4.6-10.3-10.3V5.2h3.4c1.4 0 2.6-1.2 2.6-2.6 0-1.4-1.2-2.6-2.6-2.6h-5.2c-0.1 0-0.3 0-0.4 0 -0.1 0-0.3 0-0.4 0 -1.4 0-2.6 1.2-2.6 2.6v12.9c0 8.3 6.5 15 14.7 15.5v15.6c0 5.7-4.6 10.3-10.3 10.3 -5.6 0-10.3-3.8-10.3-8.2v-0.8c4.5-1.2 7.8-5.2 7.8-10 0-5.7-4.6-10.3-10.3-10.3 -5.7 0-10.3 4.6-10.3 10.3 0 4.8 3.3 8.9 7.8 10v0.8c0 7.4 7 13.4 15.5 13.4 8.6 0 15.5-7 15.5-15.5V30.8c7.3-1.2 12.9-7.6 12.9-15.3V2.6C65.6 1.2 64.4 0 63 0z"/></svg>