<svg xmlns="http://www.w3.org/2000/svg" version="1.1" viewBox="0 0 68.7 75" xml:space="preserve"><path fill="white" stroke="white" d="M3.1 31.2h50V3.1h-50V31.2zM54.7 34.4H1.6c-0.9 0-1.6-0.7-1.6-1.6V1.6C0 0.7 0.7 0 1.6 0h53.1c0.9 0 1.6 0.7 1.6 1.6v31.3C56.2 33.7 55.6 34.4 54.7 34.4zM9.4 21.9h37.5V9.4H9.4V21.9zM48.4 25H7.8c-0.9 0-1.6-0.7-1.6-1.6V7.8c0-0.9 0.7-1.6 1.6-1.6h40.6c0.9 0 1.6 0.7 1.6 1.6v15.6C50 24.3 49.3 25 48.4 25zM9.4 71.9h37.5V34.4H9.4V71.9zM48.4 75H7.8c-0.9 0-1.6-0.7-1.6-1.6V32.8c0-0.9 0.7-1.6 1.6-1.6h40.6c0.9 0 1.6 0.7 1.6 1.6v40.6C50 74.3 49.3 75 48.4 75zM20.3 23.4c-0.9 0-1.6-0.7-1.6-1.6v-3.1c0-0.9 0.7-1.6 1.6-1.6 0.9 0 1.6 0.7 1.6 1.6v3.1C21.9 22.7 21.2 23.4 20.3 23.4zM61.1 71.9h-0.4c-4.2 0-7.6-3.4-7.6-7.6V46.9c0-1.7-1.4-3.1-3.1-3.1 -0.9 0-1.6-0.7-1.6-1.6 0-0.9 0.7-1.6 1.6-1.6 3.4 0 6.2 2.8 6.2 6.2v17.4c0 2.5 2 4.5 4.5 4.5h0.4c2.5 0 4.5-2 4.5-4.5V22.5l-4.9-4.9c-0.6-0.6-0.6-1.6 0-2.2 0.6-0.6 1.6-0.6 2.2 0l5.3 5.3c0.3 0.3 0.5 0.7 0.5 1.1v42.4C68.7 68.4 65.3 71.9 61.1 71.9L61.1 71.9z"/></svg>