
<svg version="1.1"  xmlns="http://www.w3.org/2000/svg" 
	 viewBox="0 0 40 43.3" >
<g fill="#ffffff">
	<path d="M27.1,13.2c-0.8,0-1.6-0.4-2.1-1c-0.4-0.5-0.6-1.2-0.5-1.9c0.1-0.7,0.4-1.3,1-1.7c1.1-0.9,2.8-0.6,3.7,0.5
		c0.4,0.6,0.6,1.2,0.5,1.9c-0.1,0.7-0.4,1.3-1,1.7C28.2,13,27.7,13.2,27.1,13.2z M27.1,9.8c-0.1,0-0.3,0-0.5,0.2
		c-0.2,0.1-0.3,0.3-0.3,0.5c0,0.2,0,0.4,0.2,0.6c0.2,0.2,0.4,0.3,0.7,0.3c0.1,0,0.3,0,0.5-0.2c0.2-0.1,0.3-0.3,0.3-0.5
		c0-0.2,0-0.4-0.2-0.6C27.6,9.9,27.4,9.8,27.1,9.8z"/>
	<path d="M11.7,42.5H6c-1,0-1.8-0.8-1.8-1.8v0c0-0.9,0.7-1.6,1.6-1.6h6.2c0.9,0,1.6,0.7,1.6,1.6v0C13.5,41.7,12.7,42.5,11.7,42.5z"
		/>
	<path d="M39.2,40.9H26.4c0.4-0.4,0.7-0.9,1-1.4c5.6-7.9,7.7-15.8,3.4-25l4-4.9c0.1-0.2,0.2-0.4,0.2-0.6c0-0.2-0.1-0.4-0.3-0.6
		l-0.9-0.7l2.7-3.3c0.3-0.4,0.2-0.9-0.1-1.2l-3.8-3.1C32.3,0,32.1,0,31.9,0c-0.2,0-0.4,0.1-0.6,0.3l-2.7,3.3l-1-0.8
		c-0.4-0.3-0.9-0.2-1.2,0.1L9.6,23.5c-0.1,0.2-0.2,0.4-0.2,0.6c0,0.2,0.1,0.4,0.3,0.6L10,25c-0.9,1.8-0.5,4.1,1.1,5.4
		c0.8,0.6,1.8,1,2.8,1c0.1,0,0.3,0,0.4,0c0.9-0.1,1.6-0.4,2.3-0.9l0,0c0.2,0.1,0.3,0.2,0.5,0.2c0.2,0,0.5-0.1,0.6-0.3L29,17
		c2.8,6.3,1.6,13.8-2.5,19.5c-1.2,1.7-2.2,3.2-3.8,4.4H0.8c-0.5,0-0.8,0.4-0.8,0.8v0.7c0,0.5,0.4,0.8,0.8,0.8h38.4
		c0.5,0,0.8-0.4,0.8-0.8v-0.7C40,41.3,39.7,40.9,39.2,40.9z M32.1,2l2.5,2.1l-2.1,2.5L30,4.5L32.1,2z M14.2,29.7
		c-0.7,0.1-1.4-0.1-2-0.6c-0.9-0.7-1.2-1.9-0.8-3l3.9,3.2C14.9,29.5,14.6,29.6,14.2,29.7z M17.1,28.5c-0.1-0.1-0.2-0.1-0.3-0.1
		l-5.4-4.5L27.2,4.6l5.7,4.6L17.1,28.5z"/>
</g>
</svg>
