<?xml version="1.0" encoding="utf-8"?>
<!-- Generator: Adobe Illustrator 19.0.1, SVG Export Plug-In . SVG Version: 6.00 Build 0)  -->
<svg version="1.1" id="White" xmlns="http://www.w3.org/2000/svg" xmlns:xlink="http://www.w3.org/1999/xlink" x="0px" y="0px"
	 viewBox="207 -207 514 514" style="enable-background:new 207 -207 514 514;" xml:space="preserve">
<style type="text/css">
	.st0{fill:#FFFFFF;}
</style>
<path class="st0" d="M464,307c-68.6,0-133.2-26.7-181.7-75.3C233.7,183.2,207,118.6,207,50s26.7-133.2,75.3-181.7
	C330.8-180.3,395.4-207,464-207s133.2,26.7,181.7,75.3C694.3-83.2,721-18.6,721,50c0,68.6-26.7,133.2-75.3,181.7S532.6,307,464,307z
	 M464-191C331.1-191,223-82.9,223,50s108.1,241,241,241S705,182.9,705,50S596.9-191,464-191z"/>
<path class="st0" d="M582.2-83H344.7c-8.1,0-14.7,6.6-14.7,14.7v237.5c0,8.1,6.6,14.7,14.7,14.7l237.4,0.1c8.1,0,14.7-6.6,14.7-14.7
	V-68.3C596.9-76.4,590.3-83,582.2-83z M407.9,149.9c0,1.7-0.1,1.8-1.9,1.8h-37.5c-1.9,0-2-0.1-2-2c-0.1-21.5-0.1-43-0.1-64.4V21.1
	c0-2.1,0-2.1,2.1-2.1h37.7c1.3,0,1.7,0.4,1.7,1.7V149.9z M386.9,0.8C374.1,1.1,363-10,363.1-23.1c0.1-13.3,10.7-23.9,24.1-23.9
	c12.6,0,23.8,10.2,23.9,24C411.1-9.6,399.9,1.1,386.9,0.8z M562.2,149.9c0,1.8,0,1.8-1.8,1.8h-37.5c-1.9,0-1.9,0-1.9-1.9
	c0-22.9,0-45.8-0.1-68.7c0-5.9-0.6-11.9-2.8-17.5c-2.7-6.9-7.8-10.6-15.1-11.4c-4.3-0.5-8.4-0.1-12.5,1.1
	c-5.7,1.7-9.6,5.5-12.1,10.8c-2.2,4.7-3.2,9.8-3.2,14.9c-0.2,14.3-0.2,28.6-0.2,43v28.2c0,1.2-0.4,1.6-1.5,1.6h-38.3
	c-1.3,0-1.5-0.6-1.4-1.6V20.8c-0.2-0.6-0.2-1.1-0.2-1.8h38c1.4,0,1.7,0.4,1.7,1.7c-0.1,4.9,0,9.9,0,14.8c0,0.5,0.1,0.9,0.2,1.5
	c1.5-2.1,2.8-4,4.3-5.9c4.3-5.3,9.8-9.2,16.1-11.8c3.9-1.7,8-2.9,12.2-3.2c4.3-0.4,8.6-0.4,12.9-0.1c4.1,0.3,8.2,0.9,12.2,2
	c9.9,2.6,17.6,8.2,22.8,17.2c3.3,5.8,5.2,12.1,6.4,18.7c1.4,7.5,1.8,15,1.8,22.5V149.9z"/>
</svg>
