<?xml version="1.0" encoding="utf-8"?>
<!-- Generator: Adobe Illustrator 19.0.1, SVG Export Plug-In . SVG Version: 6.00 Build 0)  -->
<svg version="1.1" id="White" xmlns="http://www.w3.org/2000/svg" xmlns:xlink="http://www.w3.org/1999/xlink" x="0px" y="0px"
	 viewBox="83 -83.9 266.9 266.9" style="enable-background:new 83 -83.9 266.9 266.9;" xml:space="preserve">
<style type="text/css">
	.st0{fill:#FFFFFF;}
</style>
<path id="White_2_" d="M335.1,183.1c8.1,0,14.7-6.6,14.7-14.7V-69.2c0.1-8.1-6.5-14.7-14.6-14.7H97.7c-8.1,0-14.7,6.6-14.7,14.7
	v237.5c0,8.1,6.6,14.7,14.7,14.7L335.1,183.1z"/>
<g>
	<path class="st0" d="M186.6,18.1c0.7,0,1.1,0,1.5,0c12.2,0,24.3,0,36.5,0c1.4,0,1.7,0.4,1.7,1.7c-0.1,4.9,0,9.9,0,14.8
		c0,0.5,0.1,0.9,0.2,1.5c1.5-2.1,2.8-4,4.3-5.9c4.3-5.3,9.8-9.2,16.1-11.8c3.9-1.7,8-2.9,12.2-3.2c4.3-0.4,8.6-0.4,12.9-0.1
		c4.1,0.3,8.2,0.9,12.2,2c9.9,2.6,17.6,8.2,22.8,17.2c3.3,5.8,5.2,12.1,6.4,18.7c1.4,7.5,1.8,15,1.8,22.5c0,24.5,0,49,0,73.5
		c0,1.8,0,1.8-1.8,1.8c-12.5,0-25,0-37.5,0c-1.9,0-1.9,0-1.9-1.9c0-22.9,0-45.8-0.1-68.7c0-5.9-0.6-11.9-2.8-17.5
		c-2.7-6.9-7.8-10.6-15.1-11.4c-4.3-0.5-8.4-0.1-12.5,1.1c-5.7,1.7-9.6,5.5-12.1,10.8c-2.2,4.7-3.2,9.8-3.2,14.9
		c-0.2,14.3-0.2,28.6-0.2,43c0,9.4,0,18.8,0,28.2c0,1.2-0.4,1.6-1.5,1.6c-12.8,0-25.5,0-38.3,0c-1.3,0-1.5-0.6-1.4-1.6
		c0-30,0-59.9,0-89.9c0-13.2,0-26.3,0-39.5C186.6,19.3,186.6,18.8,186.6,18.1z"/>
	<path class="st0" d="M119.4,84.4c0-21.4,0-42.8,0-64.2c0-2.1,0-2.1,2.1-2.1c12.6,0,25.1,0,37.7,0c1.3,0,1.7,0.4,1.7,1.7
		c0,43.1,0,86.2,0,129.2c0,1.7-0.1,1.8-1.9,1.8c-12.5,0-25,0-37.5,0c-1.9,0-2-0.1-2-2C119.4,127.3,119.4,105.8,119.4,84.4z"/>
	<path class="st0" d="M139.9-0.1C127.1,0.2,116-10.9,116.1-24c0.1-13.3,10.7-23.9,24.1-23.9c12.6,0,23.8,10.2,23.9,24
		C164.1-10.5,152.9,0.2,139.9-0.1z"/>
</g>
</svg>
