<svg xmlns="http://www.w3.org/2000/svg" viewBox="0 0 432 432" version="1.1"><g stroke="none" stroke-width="1" fill="none" fill-rule="evenodd"><path d="M178.9 232.1C152 245.2 117.8 268.6 117.8 294.3 117.8 303.8 122.6 309.8 131.5 309.8 157.8 309.8 174 268 178.9 232.1L178.9 232.1ZM186 120.1C186 117.2 184.3 116 181.8 116 169.2 116 151.4 148.9 151.4 168.6 171.1 157.8 186 133.4 186 120.1L186 120.1ZM292 122.6C292 119.7 291.4 116 287.7 116 278.8 116 264.5 135.2 264.5 159.7 282.3 144.1 292 130.9 292 122.6L292 122.6ZM336.1 273.4C336.1 300.3 312.9 328.5 278.8 328.5 237.5 328.5 216.6 293.7 216.6 262.6 216.6 218.9 246.5 200.5 259.1 193.8 256.6 192 254.8 189.7 253.1 186.6 238.6 196.8 225.5 205.8 198 221.4 196.8 240.5 195.1 261.4 190.2 275.9 180 306.3 159.1 328.5 131.5 328.5 108.3 328.5 96.9 311.7 96.9 293.7 96.9 280.6 104.6 263.9 118.5 251.2 135.8 235.7 154.9 226.1 181.2 212.3 181.8 208.8 182.4 205.2 183.1 200.9 176.5 206.9 166.9 209.4 159.1 209.4 146.6 209.4 136.3 198.6 134 187.2 117.2 186 104.6 174 104 154.9 104 141.2 109.4 129.2 118.5 129.2 122 129.2 123.2 132.2 123.2 134.6 123.2 136.9 120.1 144.8 120.1 152.5 120.1 160.3 123.8 170.5 133.4 170.5 133.4 139.4 156.1 99.2 183.1 99.2 200.9 99.2 203.4 112.5 203.4 118.5 203.4 146.6 175.2 177.7 152.4 185.4 153.1 187.8 155.5 194.5 162.7 194.5 171.7 194.5 182.4 186 187.8 179.4 190.2 166.9 199.2 148.9 211.2 148.9 216 148.9 218.3 152.5 218.3 156.8 218.3 165.7 208.8 177.1 201.5 184.8 200.5 190.8 199.9 197.4 199.9 202.8 220.8 190.2 231.6 183.7 247.1 172.3 245.9 168.2 245.9 163.2 245.9 158.5 245.9 130.5 264.5 99.2 288.9 99.2 302.8 99.2 309.8 108.9 309.8 119.7 309.8 140 292.5 157.8 268 176.5 269.9 181.2 272.8 185.4 277.5 187.8 278.1 186.6 286 185.4 292.5 185.4 299.7 185.4 309.8 187.2 309.8 194.5 309.8 202.8 298.5 204.6 289.5 204.6 284.8 205.2 276.9 203.4 276.9 203.4 263.8 206.9 238.6 222 238.6 260.2 238.6 286 254.8 309.8 280 309.8 299.1 309.8 314.6 295.5 315.2 273.4 315.3 259.1 309.2 244 294.9 244 287.7 244 281.2 249.4 281.2 257.2 280.6 269.2 289.5 270.5 289.5 278.2 289.5 283.5 285.4 286 281.2 286 269.2 286 260.2 274 260.2 259.1 260.2 241.1 275.8 226.1 296.1 226.1 322.5 226.1 336.1 248.9 336.1 273.4L336.1 273.4ZM408.6 216C408.6 147.7 373.9 77.1 299.1 54.5 283.5 49.7 270.5 46.6 255.4 46.6 220.8 46.6 219.5 66.3 203.4 66.3 194.5 66.3 188.4 59.9 188.4 52 188.4 38.3 204.6 27.5 230.3 27.5 254.3 27.5 272.8 33.6 276.3 35.2L276.9 33.6C270.5 31.1 247.7 23.2 216 23.2 147.1 23.2 77.1 58.6 54.5 132.8 49.7 148.3 46.6 161.6 46.6 176.5 46.6 211.2 66.3 212.9 66.3 229.1 66.3 237.5 59.8 243.5 52 243.5 38.3 243.5 27.5 227.8 27.5 201.5 27.5 177.7 33.5 159.1 34.6 155.5L32.9 154.9C31.1 162.1 23.2 184.3 23.2 216 23.2 285.4 58.6 355.4 132.8 378.1 148.3 382.9 161.5 385.8 176.5 385.8 211.2 385.8 212.3 365.5 228.5 365.5 236.9 365.5 243.5 372.1 243.5 380.5 243.5 393.7 227.8 404.5 201.5 404.5 177.7 404.5 158.4 398.5 155.5 397.2L154.9 399.1C161.5 402 184.3 408.6 216 408.6 284.8 408.6 355.4 373.8 377.5 299.1 382.3 284.2 385.2 270.5 385.2 256 385.2 220.8 365.5 219.5 365.5 203.4 365.5 194.5 371.5 188.4 379.9 188.4 393.7 188.4 404.4 204.6 404.4 230.9 404.4 254.3 398.4 272.8 397.2 276.9L399.1 277.5C401.4 270.5 408.6 248.3 408.6 216L408.6 216ZM421.7 216C421.7 329.7 329.7 421.7 216 421.7 102.3 421.7 10.2 329.7 10.2 216 10.2 102.3 102.3 10.2 216 10.2 329.7 10.2 421.7 102.9 421.7 216L421.7 216ZM432 216C432 96.9 335.1 0 216 0 96.9 0 0 96.9 0 216 0 335.5 96.9 432 216 432 335.1 432 432 335.5 432 216L432 216Z" fill="#ffffff"/></g></svg>