<?xml version="1.0" encoding="utf-8"?>
<!-- Generator: Adobe Illustrator 18.1.1, SVG Export Plug-In . SVG Version: 6.00 Build 0)  -->
<svg version="1.1" id="Layer_1" xmlns="http://www.w3.org/2000/svg" xmlns:xlink="http://www.w3.org/1999/xlink" x="0px" y="0px"
	 viewBox="800 0 200 200" enable-background="new 800 0 200 200" xml:space="preserve">
<g>
	<path fill="#FFFFFF" d="M882.8,107.5c-12.5,6.1-28.3,16.9-28.3,28.8c0,4.4,2.2,7.2,6.3,7.2C873.1,143.4,880.6,124.1,882.8,107.5
		L882.8,107.5z M886.1,55.6c0-1.3-0.8-1.9-1.9-1.9c-5.8,0-14.1,15.2-14.1,24.4C879.2,73.1,886.1,61.8,886.1,55.6L886.1,55.6z
		 M935.2,56.8c0-1.3-0.3-3.1-2-3.1c-4.1,0-10.7,8.9-10.7,20.2C930.7,66.7,935.2,60.6,935.2,56.8L935.2,56.8z M955.6,126.6
		c0,12.5-10.7,25.5-26.5,25.5c-19.1,0-28.8-16.1-28.8-30.5c0-20.2,13.8-28.8,19.7-31.9c-1.2-0.8-2-1.9-2.8-3.3
		c-6.7,4.7-12.8,8.9-25.5,16.1c-0.6,8.8-1.3,18.5-3.6,25.2c-4.7,14.1-14.4,24.4-27.2,24.4c-10.7,0-16-7.8-16-16.1
		c0-6.1,3.6-13.8,10-19.7c8-7.2,16.9-11.6,29-18c0.3-1.6,0.6-3.3,0.9-5.3c-3.1,2.8-7.5,3.9-11.1,3.9c-5.8,0-10.6-5-11.6-10.3
		c-7.8-0.6-13.6-6.1-13.9-15c0-6.3,2.5-11.9,6.7-11.9c1.6,0,2.2,1.4,2.2,2.5c0,1.1-1.4,4.7-1.4,8.3c0,3.6,1.7,8.3,6.2,8.3
		c0-14.4,10.5-33,23-33c8.2,0,9.4,6.2,9.4,8.9c0,13-13.1,27.4-23.6,31c0.3,1.1,1.4,4.2,4.8,4.2c4.2,0,9.1-3.9,11.6-7
		c1.1-5.8,5.3-14.1,10.8-14.1c2.2,0,3.3,1.7,3.3,3.7c0,4.1-4.4,9.4-7.8,13c-0.5,2.8-0.7,5.8-0.7,8.3c9.7-5.8,14.7-8.8,21.9-14.1
		c-0.6-1.9-0.6-4.2-0.6-6.4c0-13,8.6-27.5,19.9-27.5c6.4,0,9.7,4.5,9.7,9.5c0,9.4-8,17.6-19.4,26.3c0.9,2.2,2.2,4.1,4.4,5.2
		c0.3-0.6,3.9-1.1,6.9-1.1c3.3,0,8,0.8,8,4.2c0,3.8-5.2,4.7-9.4,4.7c-2.2,0.3-5.8-0.6-5.8-0.6c-6.1,1.6-17.7,8.6-17.7,26.3
		c0,11.9,7.5,23,19.2,23c8.8,0,16-6.6,16.3-16.9c0-6.6-2.8-13.6-9.4-13.6c-3.3,0-6.3,2.5-6.3,6.1c-0.3,5.6,3.8,6.2,3.8,9.7
		c0,2.5-1.9,3.6-3.8,3.6c-5.6,0-9.7-5.6-9.7-12.5c0-8.3,7.2-15.3,16.6-15.3C949.3,104.7,955.6,115.2,955.6,126.6L955.6,126.6z
		 M989.2,100c0-31.6-16.1-64.3-50.7-74.8c-7.2-2.2-13.2-3.7-20.2-3.7c-16,0-16.6,9.1-24.1,9.1c-4.1,0-6.9-3-6.9-6.6
		c0-6.3,7.5-11.3,19.4-11.3c11.1,0,19.7,2.8,21.3,3.6l0.3-0.7c-3-1.2-13.5-4.8-28.2-4.8c-31.9,0-64.3,16.4-74.8,50.7
		c-2.2,7.2-3.7,13.3-3.7,20.2c0,16.1,9.1,16.9,9.1,24.4c0,3.9-3,6.7-6.6,6.7c-6.3,0-11.3-7.3-11.3-19.4c0-11,2.8-19.6,3.3-21.3
		l-0.8-0.3c-0.8,3.3-4.5,13.6-4.5,28.3c0,32.1,16.4,64.5,50.7,75c7.2,2.2,13.3,3.6,20.2,3.6c16.1,0,16.6-9.4,24.1-9.4
		c3.9,0,6.9,3.1,6.9,6.9c0,6.1-7.3,11.1-19.4,11.1c-11,0-20-2.8-21.3-3.4l-0.3,0.9c3.1,1.3,13.6,4.4,28.3,4.4
		c31.9,0,64.5-16.1,74.8-50.7c2.2-6.9,3.6-13.2,3.6-20c0-16.3-9.1-16.9-9.1-24.4c0-4.1,2.8-6.9,6.7-6.9c6.4,0,11.3,7.5,11.3,19.7
		c0,10.8-2.8,19.4-3.3,21.3l0.9,0.3C985.8,125.2,989.2,115,989.2,100L989.2,100z M995.2,100c0,52.6-42.6,95.2-95.2,95.2
		s-95.3-42.6-95.3-95.2S847.4,4.7,900,4.7S995.2,47.6,995.2,100L995.2,100z M1000,100c0-55.1-44.9-100-100-100S800,44.9,800,100
		c0,55.3,44.9,100,100,100S1000,155.3,1000,100L1000,100z"/>
</g>
</svg>
