<svg xmlns="http://www.w3.org/2000/svg" viewBox="0 0 603 107" version="1.1"><defs><path d="M0.1 0.3L603 0.3 603 106.9 0.1 106.9M0.1 0.3L603 0.3 603 106.9 0.1 106.9 0.1 0.3Z"/></defs><g stroke="none" stroke-width="1" fill="none" fill-rule="evenodd"><mask fill="white"/><path d="M8.6 35.2L0 35.2 0 26.8 8.6 25.6 8.6 15.1 27.2 12.5 27.2 25.6 39.3 25.6 39.3 35.2 27.2 35.2 27.2 64.7C27.2 70.1 28.7 72.9 34.1 72.9 36.1 72.9 38.6 72.7 40 72.5L40 79.7C37 81.5 30.7 83 24.9 83 13.8 83 8.6 78.1 8.6 66.3L8.6 35.2" fill="#FFFFFF" mask="url(#mask-2)"/><path d="M41 76.4L47.1 73.6 47.1 11.8 40.7 8.9 40.7 4 63.9 0.3 65.4 0.3 65.4 31.5 66 31.5C71 26.9 77.8 24.2 85.4 24.2 94.7 24.2 99.4 28.8 99.4 39.1L99.4 73.6 105.5 76.4 105.5 81.5 74.9 81.5 74.9 76.4 80.8 73.6 80.8 43.3C80.8 37.5 78.4 35.4 73.3 35.4 70.5 35.4 68 36 65.7 36.9L65.7 73.6 71.6 76.4 71.6 81.5 41 81.5 41 76.4" fill="#FFFFFF"/><mask fill="white"/><path d="M124.4 48.6L139.9 47.7C139.9 32.8 137.4 30.4 132.8 30.4 127.7 30.4 124.6 33.7 124.4 48.6L124.4 48.6ZM124.6 55.3C125.5 66.2 130.7 71.3 140.9 71.3 148 71.3 152 70.6 155.9 69.4L155.9 74.8C153.3 78.4 144.9 83 134.6 83 115.4 83 105.6 72.4 105.6 53.5 105.6 35 116.4 24.3 133.1 24.3 149.9 24.3 158 31.8 158 55.3L124.6 55.3 124.6 55.3ZM186.7 43.4C186.7 54.8 189.2 55.8 193.2 55.8 197.2 55.8 199.9 54.6 199.9 43.4 199.9 32.2 197.3 30.5 193.2 30.5 189.2 30.5 186.7 32 186.7 43.4L186.7 43.4ZM207.9 90.5C207.9 87.6 205.8 86.2 201.2 86.2L181.7 86.2C180.2 87.9 179.5 89.8 179.5 92.5 179.5 96.4 183 100 193.1 100 204.7 100 207.9 96.3 207.9 90.5L207.9 90.5ZM224 85.3C224 98.6 214.5 107 192.6 107 175.1 107 164.3 101.5 164.3 94 164.3 86.7 171.4 84.6 177.7 83.3L177.7 82.7C171.7 81.4 168.8 77.1 168.8 72.7 168.8 66.9 175 62.2 178.2 60L178.2 59.4C172.6 56.3 168.9 50.8 168.9 43.4 168.9 31.3 178.9 24.1 193.2 24.1 197.7 24.1 202.6 25.5 206.1 26.8L206.9 26.8 221.2 24 222.3 24 222.3 35.1 221 35.1 211.7 31.8 211.7 32.2C215.2 35.4 217.5 38.5 217.5 44 217.5 56.2 207.6 62.7 193.2 62.7 189.5 62.7 187.1 62.5 184.1 61.6 182.7 62.6 181.6 64.2 181.6 65.7 181.6 67.7 183.4 69.3 185.6 69.3L205.5 69.3C217.9 69.3 224 74.3 224 85.3L224 85.3Z" fill="#FFFFFF" mask="url(#mask-4)"/><path d="M229.9 36L223.6 33.1 223.6 28 246.9 24.3 248.5 24.3 248.5 63.8C248.5 70.1 251.6 71.2 256.3 71.2 259.4 71.2 261.1 70.7 263 69.9L263 36 256.8 33.1 256.8 28 280 24.3 281.5 24.3 281.5 72.1 287.8 75.4 287.8 80.2 265.1 82.7 263.7 82.7 263.7 75.3 263 75.3C259.4 79.7 253.5 83 246 83 234.7 83 229.9 74.9 229.9 65.3L229.9 36M320.3 55.7L316 56.1C311.7 56.5 308.2 59.4 308.2 64.7 308.2 70.8 311.6 72.8 315.2 72.8 317.2 72.8 319.3 71.8 320.3 70.7L320.3 55.7 320.3 55.7ZM302.3 43.1L293.6 43.1 293.6 28.5C298.9 26.8 305.2 24.2 315 24.2 330 24.2 339 28.6 339 41.2L339 73.6 344.8 76.4 344.8 80.6C343 81.6 338.9 82.9 334.4 82.9 328.6 82.9 323.4 81 322.5 75L322 75C319.5 80 312.9 83 305.9 83 296 83 289.8 76.6 289.8 67.4 289.8 55.9 297.2 53.6 309.6 51.5L320.3 49.7 320.3 42.2C320.3 35.1 318.2 31.5 311 31.5 310.1 31.5 307.4 31.6 306.2 31.7L302.3 43.1 302.3 43.1ZM368.1 24L369.7 24 369.7 35.8 370.3 35.8C373.6 28.4 378.6 24.4 384.7 24.4 385.7 24.4 386.9 24.5 387.5 24.7L387.5 41C386.4 40.7 384.4 40.5 382.8 40.5 377.8 40.5 373.6 41 370.4 42.5L370.4 73.5 378.1 76.3 378.1 81.5 345.9 81.5 345.9 76.3 351.8 73.5 351.8 35.7 345.6 32.8 345.6 27.7 368.1 24M424.2 34.1C422.8 33 421.2 32.1 417.9 32.1 412.1 32.1 407.7 37.4 407.7 53.2 407.7 67 411.2 72.9 418.5 72.9 421.3 72.9 422.9 72.4 424.2 71.9L424.2 34.1 424.2 34.1ZM424.2 13L418 10.2 418 5.1 441.3 1.4 442.8 1.4 442.8 72.1 448.7 75.4 448.7 80.2 426.6 82.7 425 82.7 425 76.9 424.4 76.9C422.1 79.9 417.3 83 410.4 83 400.2 83 388 76.5 388 55.1 388 32.5 400.5 24.4 415.2 24.4 418.3 24.4 421.9 25.1 424.2 26.7L424.2 13 424.2 13ZM474.7 10.9C474.7 16.3 470.2 20.7 464.8 20.7 459.3 20.7 454.9 16.3 454.9 10.9 454.9 5.4 459.3 1 464.8 1 470.2 1 474.7 5.4 474.7 10.9L474.7 10.9ZM472.9 24L474.4 24 474.4 73.5 480.4 76.3 480.4 81.5 449.8 81.5 449.8 76.3 455.8 73.5 455.8 35.7 449.5 32.8 449.5 27.7 472.9 24 472.9 24ZM512.9 55.7L508.6 56.1C504.3 56.5 500.8 59.4 500.8 64.7 500.8 70.8 504.2 72.8 507.8 72.8 509.8 72.8 511.9 71.8 512.9 70.7L512.9 55.7 512.9 55.7ZM494.9 43.1L486.3 43.1 486.3 28.5C491.5 26.8 497.8 24.2 507.6 24.2 522.6 24.2 531.6 28.6 531.6 41.2L531.6 73.6 537.5 76.4 537.5 80.6C535.7 81.6 531.5 82.9 527 82.9 521.2 82.9 516 81 515.1 75L514.6 75C512.1 80 505.5 83 498.5 83 488.7 83 482.5 76.6 482.5 67.4 482.5 55.9 489.9 53.6 502.2 51.5L512.9 49.7 512.9 42.2C512.9 35.1 510.8 31.5 503.6 31.5 502.7 31.5 500 31.6 498.8 31.7L494.9 43.1 494.9 43.1ZM538.6 76.4L544.7 73.6 544.7 35.7 538.3 32.8 538.3 27.9 561.5 24.2 563 24.2 563 31.5 563.6 31.5C568.5 26.9 575.3 24.2 582.9 24.2 592.2 24.2 596.9 28.8 596.9 39.1L596.9 73.6 603 76.4 603 81.5 572.4 81.5 572.4 76.4 578.3 73.6 578.3 43.3C578.3 37.5 575.9 35.4 570.8 35.4 568 35.4 565.6 36 563.3 36.9L563.3 73.6 569.1 76.4 569.1 81.5 538.6 81.5 538.6 76.4" fill="#FFFFFF"/></g></svg>