<?xml version="1.0" encoding="utf-8"?>
<!-- Generator: Adobe Illustrator 18.1.1, SVG Export Plug-In . SVG Version: 6.00 Build 0)  -->
<svg version="1.1" id="Layer_1" xmlns="http://www.w3.org/2000/svg" xmlns:xlink="http://www.w3.org/1999/xlink" x="0px" y="0px"
	 viewBox="0 0 1000 176.5" enable-background="new 0 0 1000 176.5" xml:space="preserve">
<g>
	<g>
		<g>
			<path fill="#FFFFFF" d="M14.3,57.9H0V43.9l14.3-2V24.5l30.8-4.3V42h20.1v15.9H45.1v48.9c0,9,2.5,13.6,11.4,13.6
				c3.3,0,7.5-0.3,9.8-0.7v11.9c-5,3-15.4,5.5-25,5.5c-18.4,0-27-8.1-27-27.7V57.9"/>
		</g>
		<path fill="#FFFFFF" d="M68,126.2l10.1-4.6V19.1l-10.6-4.8V6.1L106,0h2.5v51.7h1c8.3-7.6,19.6-12.1,32.2-12.1
			c15.4,0,23.2,7.6,23.2,24.7v57.2l10.1,4.6v8.5h-50.7v-8.5l9.8-4.6V71.3c0-9.6-4-13.1-12.4-13.1c-4.6,0-8.8,1-12.6,2.5v60.9
			l9.8,4.6v8.5H68V126.2"/>
		<g>
			<path fill="#FFFFFF" d="M206.3,80.1l25.7-1.5c0-24.7-4.1-28.7-11.8-28.7C211.8,49.9,206.6,55.4,206.3,80.1L206.3,80.1z
				 M206.6,91.2c1.5,18.1,10.1,26.5,27,26.5c11.8,0,18.4-1.2,24.9-3.2v9c-4.3,6-18.2,13.6-35.3,13.6c-31.8,0-48.1-17.6-48.1-48.9
				c0-30.7,17.9-48.4,45.6-48.4c27.9,0,41.3,12.4,41.3,51.4H206.6L206.6,91.2z M309.6,71.5c0,18.9,4.1,20.6,10.8,20.6
				c6.6,0,11.1-2,11.1-20.6s-4.3-21.4-11.1-21.4C313.8,50.1,309.6,52.6,309.6,71.5L309.6,71.5z M344.8,149.6c0-4.8-3.5-7.1-11.1-7.1
				h-32.3c-2.5,2.8-3.6,6-3.6,10.4c0,6.5,5.8,12.4,22.6,12.4C339.5,165.3,344.8,159.2,344.8,149.6L344.8,149.6z M371.5,141
				c0,22.1-15.8,36-52.1,36c-29,0-46.9-9.1-46.9-21.6c0-12.1,11.8-15.6,22.2-17.7v-1c-10-2.2-14.8-9.3-14.8-16.6
				c0-9.6,10.3-17.4,15.6-21.1v-1c-9.3-5.1-15.4-14.3-15.4-26.5c0-20.1,16.6-32,40.3-32c7.5,0,15.6,2.3,21.4,4.5h1.3l23.7-4.6h1.8
				v18.4h-2.2l-15.4-5.5v0.7c5.8,5.3,9.6,10.4,9.6,19.6c0,20.2-16.4,31-40.3,31c-6.1,0-10.1-0.3-15.1-1.8c-2.3,1.7-4.1,4.3-4.1,6.8
				c0,3.3,3,6,6.6,6h33C361.4,114.4,371.5,122.7,371.5,141L371.5,141z"/>
		</g>
		<path fill="#FFFFFF" d="M381.3,59.2l-10.4-4.8v-8.5l38.6-6.1h2.7v65.5c0,10.4,5.1,12.3,12.9,12.3c5.1,0,8-0.8,11.1-2.2V59.2
			l-10.3-4.8v-8.5l38.5-6.1h2.5v79.3l10.4,5.5v8l-37.6,4.1h-2.3v-12.3h-1.2c-6,7.3-15.8,12.8-28.2,12.8c-18.7,0-26.7-13.4-26.7-29.4
			V59.2 M531.2,91.9l-7.1,0.7c-7.1,0.7-12.9,5.5-12.9,14.3c0,10.1,5.6,13.4,11.6,13.4c3.3,0,6.8-1.7,8.5-3.5V91.9L531.2,91.9z
			 M501.3,71h-14.4V46.8c8.8-2.8,19.2-7.1,35.5-7.1c24.9,0,39.8,7.3,39.8,28.2v53.7l9.6,4.6v7c-3,1.7-9.8,3.8-17.2,3.8
			c-9.6,0-18.2-3.2-19.7-13.1H534c-4.1,8.3-15.1,13.3-26.7,13.3c-16.4,0-26.7-10.6-26.7-25.9c0-19.1,12.3-22.9,32.8-26.4l17.7-3
			V69.5c0-11.8-3.5-17.7-15.4-17.7c-1.5,0-6,0.2-8,0.3L501.3,71L501.3,71z M610.4,39.3h2.7v19.6h1C619.6,46.6,627.9,40,638,40
			c1.7,0,3.6,0.2,4.6,0.5v27c-1.8-0.5-5.1-0.8-7.8-0.8c-8.3,0-15.3,0.8-20.6,3.3v51.4L627,126v8.6h-53.4V126l9.8-4.6V58.7l-10.3-4.8
			v-8.5L610.4,39.3 M703.5,56.1c-2.3-1.8-5-3.3-10.4-3.3c-9.6,0-16.9,8.8-16.9,35c0,22.9,5.8,32.7,17.9,32.7c4.6,0,7.3-0.8,9.5-1.7
			V56.1L703.5,56.1z M703.5,21.1l-10.3-4.6V8l38.6-6.1h2.5v117.2l9.8,5.5v8l-36.7,4.1h-2.7V127h-1c-3.8,5-11.8,10.1-23.2,10.1
			c-16.9,0-37.1-10.8-37.1-46.3c0-37.5,20.7-50.9,45.1-50.9c5.1,0,11.1,1.2,14.9,3.8V21.1L703.5,21.1z M787.2,17.6
			c0,9-7.5,16.3-16.4,16.3c-9.1,0-16.4-7.3-16.4-16.3c0-9.1,7.3-16.4,16.4-16.4C779.8,1.2,787.2,8.5,787.2,17.6L787.2,17.6z
			 M784.2,39.3h2.5v82.1l10,4.6v8.6h-50.7V126l10-4.6V58.7l-10.4-4.8v-8.5L784.2,39.3L784.2,39.3z M850.6,91.9l-7.1,0.7
			c-7.1,0.7-12.9,5.5-12.9,14.3c0,10.1,5.6,13.4,11.6,13.4c3.3,0,6.8-1.7,8.5-3.5V91.9L850.6,91.9z M820.7,71h-14.3V46.8
			c8.6-2.8,19.1-7.1,35.3-7.1c24.9,0,39.8,7.3,39.8,28.2v53.7l9.8,4.6v7c-3,1.7-10,3.8-17.4,3.8c-9.6,0-18.2-3.2-19.7-13.1h-0.8
			c-4.1,8.3-15.1,13.3-26.7,13.3c-16.3,0-26.5-10.6-26.5-25.9c0-19.1,12.3-22.9,32.7-26.4l17.7-3V69.5c0-11.8-3.5-17.7-15.4-17.7
			c-1.5,0-6,0.2-8,0.3L820.7,71L820.7,71z M893.2,126.2l10.1-4.6V58.7l-10.6-4.8v-8.1l38.5-6.1h2.5v12.1h1
			c8.1-7.6,19.4-12.1,32-12.1c15.4,0,23.2,7.6,23.2,24.7v57.2l10.1,4.6v8.5h-50.7v-8.5l9.8-4.6V71.3c0-9.6-4-13.1-12.4-13.1
			c-4.6,0-8.6,1-12.4,2.5v60.9l9.6,4.6v8.5h-50.6V126.2"/>
	</g>
</g>
</svg>
