<?xml version="1.0" encoding="utf-8"?>
<!-- Generator: Adobe Illustrator 18.1.1, SVG Export Plug-In . SVG Version: 6.00 Build 0)  -->
<svg version="1.1" id="Layer_1" xmlns="http://www.w3.org/2000/svg" xmlns:xlink="http://www.w3.org/1999/xlink" x="0px" y="0px"
	 viewBox="780 0 180 180" enable-background="new 780 0 180 180" xml:space="preserve">
<g>
	<circle fill="#FFFFFF" cx="870" cy="90" r="90"/>
	<g>
		<path d="M888.7,67.8c-2.1,0-4.2-1.1-5.5-2.6c-1.1-1.3-1.6-3.2-1.3-5c0.3-1.8,1.1-3.4,2.6-4.5c2.9-2.4,7.4-1.6,9.8,1.3
			c1.1,1.6,1.6,3.2,1.3,5c-0.3,1.8-1.1,3.4-2.6,4.5C891.6,67.3,890.3,67.8,888.7,67.8z M888.7,58.9c-0.3,0-0.8,0-1.3,0.5
			c-0.5,0.3-0.8,0.8-0.8,1.3c0,0.5,0,1.1,0.5,1.6s1.1,0.8,1.8,0.8c0.3,0,0.8,0,1.3-0.5c0.5-0.3,0.8-0.8,0.8-1.3s0-1.1-0.5-1.6
			C890.1,59.1,889.5,58.9,888.7,58.9z"/>
		<path d="M848.1,145.2h-15c-2.6,0-4.8-2.1-4.8-4.8l0,0c0-2.4,1.8-4.2,4.2-4.2h16.4c2.4,0,4.2,1.8,4.2,4.2l0,0
			C852.8,143,850.7,145.2,848.1,145.2z"/>
		<path d="M920.7,140.9h-33.8c1.1-1.1,1.8-2.4,2.6-3.7c14.8-20.9,20.3-41.7,9-66l10.6-12.9c0.3-0.5,0.5-1.1,0.5-1.6
			s-0.3-1.1-0.8-1.6l-2.4-1.8l7.1-8.7c0.8-1.1,0.5-2.4-0.3-3.2l-10-8.2c-0.8-0.3-1.3-0.3-1.8-0.3s-1.1,0.3-1.6,0.8l-7.1,8.7
			l-2.6-2.1c-1.1-0.8-2.4-0.5-3.2,0.3L842.5,95c-0.3,0.5-0.5,1.1-0.5,1.6s0.3,1.1,0.8,1.6l0.8,0.8c-2.4,4.8-1.3,10.8,2.9,14.3
			c2.1,1.6,4.8,2.6,7.4,2.6c0.3,0,0.8,0,1.1,0c2.4-0.3,4.2-1.1,6.1-2.4l0,0c0.5,0.3,0.8,0.5,1.3,0.5s1.3-0.3,1.6-0.8l29.8-35.4
			c7.4,16.6,4.2,36.4-6.6,51.5c-3.2,4.5-5.8,8.4-10,11.6h-57.8c-1.3,0-2.1,1.1-2.1,2.1v1.8c0,1.3,1.1,2.1,2.1,2.1h101.3
			c1.3,0,2.1-1.1,2.1-2.1v-1.8C922.8,142,922,140.9,920.7,140.9z M901.9,38.3l6.6,5.5l-5.5,6.6l-6.6-5.5L901.9,38.3z M854.7,111.4
			c-1.8,0.3-3.7-0.3-5.3-1.6c-2.4-1.8-3.2-5-2.1-7.9l10.3,8.4C856.5,110.9,855.7,111.1,854.7,111.4z M862.3,108.2
			c-0.3-0.3-0.5-0.3-0.8-0.3l-14.3-11.9L889,45.1l15,12.1L862.3,108.2z"/>
	</g>
</g>
</svg>
