<?xml version="1.0" encoding="utf-8"?>
<!-- Generator: Adobe Illustrator 18.1.1, SVG Export Plug-In . SVG Version: 6.00 Build 0)  -->
<svg version="1.1" id="Layer_1" xmlns="http://www.w3.org/2000/svg" xmlns:xlink="http://www.w3.org/1999/xlink" x="0px" y="0px"
	 viewBox="781 0 179 180" enable-background="new 781 0 179 180" xml:space="preserve">
<g>
	<path d="M900.1,55c-3.3,0-6.7-1.7-8.8-4.2c-1.7-2.1-2.5-5-2.1-7.9c0.4-2.9,1.7-5.4,4.2-7.1c4.6-3.8,11.7-2.5,15.4,2.1
		c1.7,2.5,2.5,5,2.1,7.9c-0.4,2.9-1.7,5.4-4.2,7.1C904.7,54.2,902.6,55,900.1,55z M900.1,40.8c-0.4,0-1.3,0-2.1,0.8
		c-0.8,0.4-1.3,1.3-1.3,2.1s0,1.7,0.8,2.5c0.8,0.8,1.7,1.3,2.9,1.3c0.4,0,1.3,0,2.1-0.8c0.8-0.4,1.2-1.3,1.2-2.1s0-1.7-0.8-2.5
		C902.2,41.2,901.3,40.8,900.1,40.8z"/>
	<path d="M835.9,177.1h-23.8c-4.2,0-7.5-3.3-7.5-7.5l0,0c0-3.8,2.9-6.7,6.7-6.7h25.8c3.8,0,6.7,2.9,6.7,6.7l0,0
		C843.4,173.8,840.1,177.1,835.9,177.1z"/>
	<path d="M950.5,170.4h-53.3c1.7-1.7,2.9-3.8,4.2-5.8c23.3-32.9,32.1-65.8,14.2-104.2L932.2,40c0.4-0.8,0.8-1.7,0.8-2.5
		c0-0.8-0.4-1.7-1.3-2.5l-3.8-2.9l11.3-13.8c1.3-1.7,0.8-3.8-0.4-5L923,0.4C921.8,0,920.9,0,920.1,0c-0.8,0-1.7,0.4-2.5,1.3
		L906.3,15l-4.2-3.3c-1.7-1.3-3.8-0.8-5,0.4l-70,85.8c-0.4,0.8-0.8,1.7-0.8,2.5s0.4,1.7,1.3,2.5l1.3,1.2c-3.8,7.5-2.1,17.1,4.6,22.5
		c3.3,2.5,7.5,4.2,11.7,4.2c0.4,0,1.3,0,1.7,0c3.8-0.4,6.7-1.7,9.6-3.8l0,0c0.8,0.4,1.3,0.8,2.1,0.8c0.8,0,2.1-0.4,2.5-1.2L908,70.8
		c11.7,26.2,6.7,57.5-10.4,81.2c-5,7.1-9.2,13.3-15.8,18.3h-91.3c-2.1,0-3.3,1.7-3.3,3.3v2.9c0,2.1,1.7,3.3,3.3,3.3h160
		c2.1,0,3.3-1.7,3.3-3.3v-2.9C953.8,172.1,952.6,170.4,950.5,170.4z M920.9,8.3l10.4,8.7l-8.8,10.4l-10.4-8.8L920.9,8.3z
		 M846.3,123.8c-2.9,0.4-5.8-0.4-8.3-2.5c-3.8-2.9-5-7.9-3.3-12.5l16.3,13.3C849.3,122.9,848,123.3,846.3,123.8z M858.4,118.8
		c-0.4-0.4-0.8-0.4-1.3-0.4l-22.5-18.8l65.8-80.4l23.8,19.2L858.4,118.8z"/>
</g>
</svg>
