<?xml version="1.0" encoding="utf-8"?>
<!-- Generator: Adobe Illustrator 18.1.1, SVG Export Plug-In . SVG Version: 6.00 Build 0)  -->
<svg version="1.1" id="Layer_1" xmlns="http://www.w3.org/2000/svg" xmlns:xlink="http://www.w3.org/1999/xlink" x="0px" y="0px"
	 viewBox="635.9 0 180 180" enable-background="new 635.9 0 180 180" xml:space="preserve">
<path fill="#FFFFFF" d="M769.8,180.3L769.8,180.3c-2.2,0-4.1-1.2-5.1-3.2c0,0,0-0.1-0.1-0.1L734,108.7l-12.5,12.5
	c-2.5,2.5-5.3,4.6-7.3,6l2.8,28.2c0,0.1,0,0.3,0,0.4c0,1.5-0.6,3.1-1.7,4.1l-9.7,9.7c-1,1-2.4,1.6-3.9,1.6c-2.2,0-4.1-1.2-5.1-3.2
	v-0.1l-15.2-33.3l-33.3-15.1c0,0-0.1,0-0.1-0.1c-1.6-0.8-2.8-2.4-3.1-4.2c-0.3-1.7,0.3-3.5,1.5-4.8l9.7-9.7c1.1-1.1,2.9-1.8,4.5-1.7
	l28.1,2.8c1.4-2,3.6-4.8,6.1-7.3L707.3,82l-68-30.4c-0.1,0-0.1,0-0.2-0.1c-1.6-0.8-2.8-2.4-3.1-4.2c-0.3-1.7,0.3-3.5,1.5-4.8
	l12.3-12.2c1.1-1.1,2.9-1.8,4.5-1.7l96.7,9.8l26.6-26.6c5.4-5.4,11.8-9.2,17.9-10.7c2.3-0.6,4.5-0.9,6.6-0.9c3.9,0,7.4,1.4,10.2,4.2
	c3.7,3.4,4.7,9.2,2.9,16.3c-1.5,6.2-5.4,12.6-10.7,17.8l-26.5,26.8l9.8,96.6c0,0.1,0,0.3,0,0.4c0,1.5-0.6,3.1-1.7,4.1l-12.2,12.2
	C772.7,179.8,771.3,180.3,769.8,180.3z M735.3,97.9c0.2,0,0.5,0,0.7,0.1c1.3,0.2,2.4,1.1,2.9,2.3l31.7,70.4l9-9l-9.8-97.3
	c-0.1-1.2,0.3-2.4,1.2-3.2l28-28c4.3-4.3,7.5-9.5,8.6-14.2c1-4,0.8-7.3-0.6-8.6l-0.1-0.1c-1.3-1.3-2.8-1.9-4.6-1.9
	c-1.4,0-2.9,0.2-4.6,0.6c-4.8,1.2-9.9,4.3-14.3,8.7l-28,27.9c-0.8,0.8-2,1.3-3.2,1.2l-97.4-9.8l-9,9L716,77.3
	c1.2,0.5,2.1,1.6,2.3,2.9s-0.2,2.6-1.1,3.6l-16.6,16.5c-3,3-5.7,6.8-6.3,7.9c-0.8,1.3-2.3,2.1-3.8,2l-29.4-2.9l-6.4,6.4l31.5,14.4
	c0.9,0.4,1.6,1.1,2,2l14.4,31.5l6.4-6.4l-2.9-29.4c-0.1-1.4,0.5-2.7,1.6-3.6c0.2-0.2,0.6-0.4,1-0.7c1.7-1.2,4.8-3.4,7.2-5.8
	l16.6-16.5C733.2,98.3,734.2,97.9,735.3,97.9z"/>
</svg>
