<?xml version="1.0" encoding="utf-8"?>
<!-- Generator: Adobe Illustrator 18.1.1, SVG Export Plug-In . SVG Version: 6.00 Build 0)  -->
<svg version="1.1" id="Layer_1" xmlns="http://www.w3.org/2000/svg" xmlns:xlink="http://www.w3.org/1999/xlink" x="0px" y="0px"
	 viewBox="0 0 960 180" enable-background="new 0 0 960 180" xml:space="preserve">
<path d="M769.9,186.1C769.9,186.1,769.9,186.1,769.9,186.1c-2.2,0-4.1-1.2-5.1-3.2c0,0,0-0.1-0.1-0.1L734,114.3l-12.5,12.5
	c-2.5,2.5-5.3,4.6-7.3,6l2.8,28.3c0,0.1,0,0.3,0,0.4c0,1.5-0.6,3.1-1.7,4.1l-9.7,9.7c-1,1-2.4,1.6-3.9,1.6c-2.2,0-4.1-1.2-5.1-3.2
	c0,0,0-0.1,0-0.1l-15.2-33.4l-33.4-15.2c0,0-0.1,0-0.1-0.1c-1.6-0.8-2.8-2.4-3.1-4.2c-0.3-1.7,0.3-3.5,1.5-4.8l9.7-9.7
	c1.1-1.1,2.9-1.8,4.5-1.7l28.2,2.8c1.4-2,3.6-4.8,6.1-7.3l12.5-12.5l-68.2-30.5c-0.1,0-0.1,0-0.2-0.1c-1.6-0.8-2.8-2.4-3.1-4.2
	c-0.3-1.7,0.3-3.5,1.5-4.8l12.3-12.2c1.1-1.1,2.9-1.8,4.5-1.7l96.9,9.8l26.7-26.7c5.4-5.4,11.8-9.2,17.9-10.7
	c2.3-0.6,4.5-0.9,6.6-0.9c3.9,0,7.4,1.4,10.2,4.2c3.7,3.4,4.7,9.2,2.9,16.4c-1.5,6.2-5.4,12.6-10.7,17.9L778,70.9l9.8,96.9
	c0,0.1,0,0.3,0,0.4c0,1.5-0.6,3.1-1.7,4.1l-12.2,12.2C772.8,185.6,771.4,186.1,769.9,186.1z M735.3,103.4c0.2,0,0.5,0,0.7,0.1
	c1.3,0.2,2.4,1.1,2.9,2.3l31.8,70.6l9-9l-9.8-97.6c-0.1-1.2,0.3-2.4,1.2-3.2l28.1-28.1c4.3-4.3,7.5-9.5,8.6-14.2
	c1-4,0.8-7.3-0.6-8.6c0,0-0.1-0.1-0.1-0.1c-1.3-1.3-2.8-1.9-4.6-1.9c-1.4,0-2.9,0.2-4.6,0.6c-4.8,1.2-9.9,4.3-14.3,8.7L755.5,51
	c-0.8,0.8-2,1.3-3.2,1.2l-97.6-9.8l-9,9L716,82.8c1.2,0.5,2.1,1.6,2.3,2.9s-0.2,2.6-1.1,3.6l-16.6,16.6c-3,3-5.7,6.8-6.3,7.9
	c-0.8,1.3-2.3,2.1-3.8,2l-29.5-2.9l-6.4,6.4l31.6,14.4c0.9,0.4,1.6,1.1,2,2l14.4,31.6l6.4-6.4l-2.9-29.5c-0.1-1.4,0.5-2.7,1.6-3.6
	c0.2-0.2,0.6-0.4,1-0.7c1.7-1.2,4.8-3.4,7.2-5.8l16.6-16.6C733.2,103.8,734.2,103.4,735.3,103.4z"/>
</svg>
