<?xml version="1.0" encoding="utf-8"?>
<!-- Generator: Adobe Illustrator 18.1.1, SVG Export Plug-In . SVG Version: 6.00 Build 0)  -->
<svg version="1.1" id="Layer_1" xmlns="http://www.w3.org/2000/svg" xmlns:xlink="http://www.w3.org/1999/xlink" x="0px" y="0px"
	 viewBox="0 0 960 180" enable-background="new 0 0 960 180" xml:space="preserve">
<circle fill="#FFFFFF" cx="493.1" cy="-131.5" r="90"/>
<path d="M520.5-74.5L520.5-74.5c-1.5,0-2.9-0.9-3.6-2.3l-19-42.3l-7.3,7.3c-1.5,1.5-3.2,2.8-4.4,3.6l1.7,17.4c0,0.1,0,0.2,0,0.3
	c0,1.1-0.4,2.2-1.2,2.9l-6.1,6.1c-0.8,0.8-1.7,1.2-2.8,1.2c-1.5,0-2.9-0.9-3.6-2.3l-9.5-20.8l-20.7-9.5c0,0-0.1,0-0.1,0
	c-1.2-0.6-2-1.7-2.2-3c-0.2-1.3,0.2-2.5,1.1-3.4l6.1-6.1c0.8-0.8,2-1.3,3.2-1.2l17.4,1.7c0.9-1.3,2.2-2.9,3.7-4.4l7.3-7.3
	l-42.1-18.8c0,0-0.1,0-0.1-0.1c-1.2-0.6-2-1.7-2.2-3c-0.2-1.2,0.2-2.5,1.1-3.4l7.7-7.7c0.8-0.8,2-1.3,3.2-1.2l60.4,6.1l16.6-16.6
	c3.4-3.4,7.5-5.9,11.5-6.9c1.5-0.4,2.9-0.6,4.2-0.6c2.6,0,4.9,0.9,6.7,2.7c2.4,2.3,3.1,6.1,2,10.7c-1,4-3.4,8-6.9,11.5L526.1-147
	l6.1,60.4c0,0.1,0,0.2,0,0.3c0,1.1-0.4,2.2-1.2,2.9l-7.7,7.7C522.6-74.9,521.6-74.5,520.5-74.5z M498.8-127.3c0.2,0,0.4,0,0.5,0
	c1,0.2,1.8,0.8,2.2,1.7L521.2-82l5-5l-6.1-60.9c-0.1-0.9,0.2-1.8,0.9-2.4l17.6-17.6c2.6-2.6,4.6-5.8,5.3-8.7
	c0.7-2.6,0.4-4.3-0.2-4.9c0,0-0.1-0.1-0.1-0.1c-0.7-0.7-1.5-1-2.5-1c-0.9,0-1.7,0.1-2.8,0.4c-2.9,0.7-6.1,2.6-8.7,5.3l-17.6,17.6
	c-0.6,0.6-1.5,1-2.4,0.9l-60.9-6.1l-5,5l43.4,19.4c0.9,0.4,1.5,1.2,1.7,2.2s-0.1,2-0.8,2.7l-10.4,10.4c-1.9,1.9-3.5,4.2-3.9,4.8
	c-0.6,1-1.7,1.6-2.9,1.5l-18.2-1.8l-3.4,3.4l19.1,8.7c0.7,0.3,1.2,0.8,1.5,1.5l8.7,19.1l3.4-3.4l-1.8-18.2c-0.1-1,0.3-2.1,1.2-2.7
	c0.1-0.1,0.4-0.3,0.7-0.5c1-0.7,3-2.1,4.4-3.6l10.4-10.4C497.3-127,498-127.3,498.8-127.3z"/>
</svg>
