<?xml version="1.0" encoding="utf-8"?>
<!-- Generator: Adobe Illustrator 18.1.0, SVG Export Plug-In . SVG Version: 6.00 Build 0)  -->
<!DOCTYPE svg PUBLIC "-//W3C//DTD SVG 1.1//EN" "http://www.w3.org/Graphics/SVG/1.1/DTD/svg11.dtd">
<svg version="1.1" id="Layer_1" xmlns="http://www.w3.org/2000/svg" xmlns:xlink="http://www.w3.org/1999/xlink" x="0px" y="0px"
	 viewBox="97 10 1000 800" enable-background="new 97 10 1000 800" xml:space="preserve">
<g>
	<rect x="390.7" y="147.5" width="568.1" height="44.4"/>
	<rect x="392.1" y="547.5" width="566.7" height="44.4"/>
	<rect x="390.7" y="347.5" width="568.1" height="44.4"/>
	<rect x="390.7" y="247.5" width="568.1" height="44.4"/>
	<rect x="390.7" y="447.5" width="568.1" height="44.4"/>
	<path d="M985.9,810H197l0,0c-51.1-3.9-100-49.6-100-114.6V143.3h150V10h850v641.4C1096.4,752.2,1056,810,985.9,810z M275.2,760
		h710.7c50.4,0,61.1-60,61.1-110.4V60H297v593.3C297,704.2,288.1,737.9,275.2,760z M147,193.3v502.1c0,40.6,32.1,55,59.6,55
		c36.5,0,40.4-67.9,40.4-97.1v-460H147z"/>
</g>
</svg>
