<?xml version="1.0" encoding="utf-8"?>
<!-- Generator: Adobe Illustrator 19.0.1, SVG Export Plug-In . SVG Version: 6.00 Build 0)  -->
<svg version="1.1" id="Layer_1" xmlns="http://www.w3.org/2000/svg" xmlns:xlink="http://www.w3.org/1999/xlink" x="0px" y="0px"
	 viewBox="450 -350 1000 800" style="enable-background:new 450 -350 1000 800;" xml:space="preserve">
<style type="text/css">
	.st0{fill:#FFFFFF;}
</style>
<g>
	<rect x="785" y="-160" class="st0" width="454.5" height="35.5"/>
	<rect x="786.1" y="160" class="st0" width="453.4" height="35.5"/>
	<rect x="785" class="st0" width="454.5" height="35.5"/>
	<rect x="785" y="-80" class="st0" width="454.5" height="35.5"/>
	<rect x="785" y="80" class="st0" width="454.5" height="35.5"/>
	<path class="st0" d="M1261.1,370H630l0,0c-40.9-3.1-80-39.7-80-91.7v-441.7h120V-270h680v513.1C1349.5,323.8,1317.2,370,1261.1,370
		z M692.6,330h568.6c40.3,0,48.9-48,48.9-88.3V-230H710v474.6C710,285.4,702.9,312.3,692.6,330z M590-123.4v401.7
		c0,32.5,25.7,44,47.7,44c29.2,0,32.3-54.3,32.3-77.7v-368L590-123.4L590-123.4z"/>
</g>
</svg>
