<?xml version="1.0" encoding="utf-8"?>
<!-- Generator: Adobe Illustrator 18.1.1, SVG Export Plug-In . SVG Version: 6.00 Build 0)  -->
<svg version="1.1" id="Layer_1" xmlns="http://www.w3.org/2000/svg" xmlns:xlink="http://www.w3.org/1999/xlink" x="0px" y="0px"
	 viewBox="390 0 180 180" enable-background="new 390 0 180 180" xml:space="preserve">
<g>
	<circle fill="#FFFFFF" cx="480" cy="90" r="90"/>
	<g>
		<path d="M449.3,48.3c-4.6,0-8.4,3.7-8.4,8.4s3.7,8.4,8.4,8.4s8.4-3.7,8.4-8.4C457.5,52,453.8,48.3,449.3,48.3z M449.3,70.6
			c-7.7,0-13.9-6.2-13.9-13.9s6.2-13.9,13.9-13.9s13.9,6.2,13.9,13.9S457,70.6,449.3,70.6z"/>
		<path d="M449.3,84.5c-1.6,0-2.9-1.2-2.9-2.9v-5.5c0-1.6,1.2-2.9,2.9-2.9c1.6,0,2.9,1.2,2.9,2.9v5.5
			C452,83.4,450.8,84.5,449.3,84.5z"/>
		<path d="M449.3,39.9c-1.6,0-2.9-1.2-2.9-2.9v-5.3c0-1.6,1.2-2.9,2.9-2.9c1.6,0,2.9,1.2,2.9,2.9v5.5
			C452,38.9,450.8,39.9,449.3,39.9z"/>
		<path d="M474.3,59.5h-5.5c-1.6,0-2.9-1.2-2.9-2.9c0-1.6,1.2-2.9,2.9-2.9h5.5c1.6,0,2.9,1.2,2.9,2.9S475.9,59.5,474.3,59.5z"/>
		<path d="M429.7,59.5h-5.5c-1.6,0-2.9-1.2-2.9-2.9c0-1.6,1.2-2.9,2.9-2.9h5.5c1.6,0,2.9,1.2,2.9,2.9S431.3,59.5,429.7,59.5z"/>
		<path d="M467,77.2c-0.7,0-1.4-0.4-2-0.9l-3.9-3.9c-1.1-1.1-1.1-2.9,0-3.9s2.9-1.1,3.9,0l3.9,3.9c1.1,1.1,1.1,2.9,0,3.9
			C468.4,77,467.7,77.2,467,77.2L467,77.2z"/>
		<path d="M435.4,45.8c-0.7,0-1.4-0.4-2-0.9l-3.9-3.9c-1.1-1.1-1.1-2.9,0-3.9s2.9-1.1,3.9,0l3.9,3.9c1.1,1.1,1.1,2.9,0,3.9
			C436.9,45.4,436.1,45.8,435.4,45.8L435.4,45.8z"/>
		<path d="M463.1,45.8c-0.7,0-1.4-0.4-2-0.9c-1.1-1.1-1.1-2.9,0-3.9l3.9-3.9c1.1-1.1,2.9-1.1,3.9,0s1.1,2.9,0,3.9l-3.9,3.9
			C464.5,45.4,463.8,45.8,463.1,45.8L463.1,45.8z"/>
		<path d="M431.5,77.2c-0.7,0-1.4-0.4-2-0.9c-1.1-1.1-1.1-2.9,0-3.9l3.9-3.9c1.1-1.1,2.9-1.1,3.9,0s1.1,2.9,0,3.9l-3.9,3.9
			C433,77,432.2,77.2,431.5,77.2L431.5,77.2z"/>
		<path d="M541.1,143.1H418.7c-1.6,0-2.9-1.2-2.9-2.9c0-1.6,1.2-2.9,2.9-2.9h122.7c1.6,0,2.9,1.2,2.9,2.9
			C544,141.9,542.8,143.1,541.1,143.1z"/>
		<path d="M454.9,140.3c-1.6,0-2.9-1.2-2.9-2.9v-27.8c0-1.6,1.2-2.9,2.9-2.9c1.6,0,2.9,1.2,2.9,2.9v27.8
			C457.5,139,456.3,140.3,454.9,140.3z"/>
		<path d="M436.3,131c-0.7,0-1.4-0.4-2-0.9c-1.1-1.1-1.1-2.9,0-3.9l31.4-31.6c1.1-1.1,2.9-1.1,3.9,0s1.1,2.9,0,3.9l-31.4,31.6
			C437.8,130.7,437,131,436.3,131L436.3,131z"/>
		<path d="M488.2,140.3c-1.6,0-2.9-1.2-2.9-2.9v-27.8c0-1.6,1.2-2.9,2.9-2.9c1.6,0,2.9,1.2,2.9,2.9v27.8
			C491.1,139,489.8,140.3,488.2,140.3z"/>
		<path d="M469.7,131c-0.7,0-1.4-0.4-2-0.9c-1.1-1.1-1.1-2.9,0-3.9l31.6-31.6c1.1-1.1,2.9-1.1,3.9,0s1.1,2.9,0,3.9l-31.6,31.6
			C471.1,130.7,470.4,131,469.7,131L469.7,131z"/>
		<path d="M521.7,140.3c-1.6,0-2.9-1.2-2.9-2.9v-27.8c0-1.6,1.2-2.9,2.9-2.9c1.6,0,2.9,1.2,2.9,2.9v27.8
			C524.4,139,523.2,140.3,521.7,140.3z"/>
		<path d="M503.2,131c-0.7,0-1.4-0.4-2-0.9c-1.1-1.1-1.1-2.9,0-3.9l31.6-31.6c1.1-1.1,2.9-1.1,3.9,0c1.1,1.1,1.1,2.9,0,3.9
			l-31.6,31.6C504.6,130.7,503.9,131,503.2,131L503.2,131z"/>
	</g>
</g>
</svg>
