<?xml version="1.0" encoding="utf-8"?>
<!-- Generator: Adobe Illustrator 18.1.1, SVG Export Plug-In . SVG Version: 6.00 Build 0)  -->
<svg version="1.1" id="Layer_1" xmlns="http://www.w3.org/2000/svg" xmlns:xlink="http://www.w3.org/1999/xlink" x="0px" y="0px"
	 viewBox="780 0 180 180" enable-background="new 780 0 180 180" xml:space="preserve">
<g>
	<path d="M827,37.1c-6.5,0-11.8,5.3-11.8,11.8s5.3,11.8,11.8,11.8s11.8-5.3,11.8-11.8C838.5,42.4,833.3,37.1,827,37.1z M827,68.4
		c-10.8,0-19.5-8.8-19.5-19.5s8.8-19.5,19.5-19.5s19.5,8.8,19.5,19.5S837.8,68.4,827,68.4z"/>
	<path d="M827,87.9c-2.3,0-4-1.8-4-4v-7.8c0-2.3,1.8-4,4-4s4,1.8,4,4v7.8C830.8,86.4,829,87.9,827,87.9z"/>
	<path d="M827,25.4c-2.3,0-4-1.8-4-4v-7.5c0-2.3,1.8-4,4-4s4,1.8,4,4v7.8C830.8,23.9,829,25.4,827,25.4z"/>
	<path d="M862,52.9h-7.8c-2.3,0-4-1.8-4-4c0-2.3,1.8-4,4-4h7.8c2.3,0,4,1.8,4,4C866,51.1,864.3,52.9,862,52.9z"/>
	<path d="M799.5,52.9h-7.8c-2.3,0-4-1.8-4-4c0-2.3,1.8-4,4-4h7.8c2.3,0,4,1.8,4,4C803.5,51.1,801.8,52.9,799.5,52.9z"/>
	<path d="M851.8,77.6c-1,0-2-0.5-2.8-1.3l-5.5-5.5c-1.5-1.5-1.5-4,0-5.5s4-1.5,5.5,0l5.5,5.5c1.5,1.5,1.5,4,0,5.5
		C853.8,77.4,852.8,77.6,851.8,77.6L851.8,77.6z"/>
	<path d="M807.5,33.6c-1,0-2-0.5-2.8-1.3l-5.5-5.5c-1.5-1.5-1.5-4,0-5.5c1.5-1.5,4-1.5,5.5,0l5.5,5.5c1.5,1.5,1.5,4,0,5.5
		C809.5,33.1,808.5,33.6,807.5,33.6L807.5,33.6z"/>
	<path d="M846.3,33.6c-1,0-2-0.5-2.8-1.3c-1.5-1.5-1.5-4,0-5.5l5.5-5.5c1.5-1.5,4-1.5,5.5,0c1.5,1.5,1.5,4,0,5.5l-5.5,5.5
		C848.3,33.1,847.3,33.6,846.3,33.6L846.3,33.6z"/>
	<path d="M802,77.6c-1,0-2-0.5-2.8-1.3c-1.5-1.5-1.5-4,0-5.5l5.5-5.5c1.5-1.5,4-1.5,5.5,0s1.5,4,0,5.5l-5.5,5.5
		C804,77.4,803,77.6,802,77.6L802,77.6z"/>
	<path d="M955.8,170.1H784c-2.3,0-4-1.8-4-4s1.8-4,4-4h172c2.3,0,4,1.8,4,4C959.8,168.4,958,170.1,955.8,170.1z"/>
	<path d="M834.8,166.1c-2.3,0-4-1.8-4-4v-39c0-2.3,1.8-4,4-4s4,1.8,4,4v39C838.5,164.4,836.8,166.1,834.8,166.1z"/>
	<path d="M808.8,153.1c-1,0-2-0.5-2.8-1.3c-1.5-1.5-1.5-4,0-5.5l44-44.2c1.5-1.5,4-1.5,5.5,0c1.5,1.5,1.5,4,0,5.5l-44,44.2
		C810.8,152.6,809.8,153.1,808.8,153.1L808.8,153.1z"/>
	<path d="M881.5,166.1c-2.3,0-4-1.8-4-4v-39c0-2.3,1.8-4,4-4s4,1.8,4,4v39C885.5,164.4,883.8,166.1,881.5,166.1z"/>
	<path d="M855.5,153.1c-1,0-2-0.5-2.8-1.3c-1.5-1.5-1.5-4,0-5.5l44.3-44.3c1.5-1.5,4-1.5,5.5,0c1.5,1.5,1.5,4,0,5.5l-44.3,44.3
		C857.5,152.6,856.5,153.1,855.5,153.1L855.5,153.1z"/>
	<path d="M928.5,166.1c-2.3,0-4-1.8-4-4v-39c0-2.3,1.8-4,4-4s4,1.8,4,4v39C932.3,164.4,930.5,166.1,928.5,166.1z"/>
	<path d="M902.5,153.1c-1,0-2-0.5-2.8-1.3c-1.5-1.5-1.5-4,0-5.5l44.3-44.3c1.5-1.5,4-1.5,5.5,0c1.5,1.5,1.5,4,0,5.5l-44.3,44.3
		C904.5,152.6,903.5,153.1,902.5,153.1L902.5,153.1z"/>
</g>
</svg>
