<?xml version="1.0" encoding="utf-8"?>
<!-- Generator: Adobe Illustrator 18.1.1, SVG Export Plug-In . SVG Version: 6.00 Build 0)  -->
<svg version="1.1" id="Layer_1" xmlns="http://www.w3.org/2000/svg" xmlns:xlink="http://www.w3.org/1999/xlink" x="0px" y="0px"
	 viewBox="768.9 0 202.2 180" enable-background="new 768.9 0 202.2 180" xml:space="preserve">
<g>
	<path fill="#FFFFFF" d="M821.7,30.6c-7.3,0-13.2,5.9-13.2,13.2S814.4,57,821.7,57c7.3,0,13.2-5.9,13.2-13.2
		C834.6,36.5,828.7,30.6,821.7,30.6z M821.7,65.7c-12.1,0-21.9-9.8-21.9-21.9s9.8-21.9,21.9-21.9c12.1,0,21.9,9.8,21.9,21.9
		S833.8,65.7,821.7,65.7z"/>
	<path fill="#FFFFFF" d="M821.7,87.6c-2.5,0-4.5-2-4.5-4.5v-8.7c0-2.5,2-4.5,4.5-4.5c2.5,0,4.5,2,4.5,4.5v8.7
		C825.9,85.9,823.9,87.6,821.7,87.6z"/>
	<path fill="#FFFFFF" d="M821.7,17.4c-2.5,0-4.5-2-4.5-4.5V4.5c0-2.5,2-4.5,4.5-4.5c2.5,0,4.5,2,4.5,4.5v8.7
		C825.9,15.7,823.9,17.4,821.7,17.4z"/>
	<path fill="#FFFFFF" d="M861,48.3h-8.7c-2.5,0-4.5-2-4.5-4.5c0-2.5,2-4.5,4.5-4.5h8.7c2.5,0,4.5,2,4.5,4.5S863.5,48.3,861,48.3z"/>
	<path fill="#FFFFFF" d="M790.8,48.3h-8.7c-2.5,0-4.5-2-4.5-4.5c0-2.5,2-4.5,4.5-4.5h8.7c2.5,0,4.5,2,4.5,4.5S793.3,48.3,790.8,48.3
		z"/>
	<path fill="#FFFFFF" d="M849.5,76.1c-1.1,0-2.2-0.6-3.1-1.4l-6.2-6.2c-1.7-1.7-1.7-4.5,0-6.2c1.7-1.7,4.5-1.7,6.2,0l6.2,6.2
		c1.7,1.7,1.7,4.5,0,6.2C851.7,75.8,850.6,76.1,849.5,76.1L849.5,76.1z"/>
	<path fill="#FFFFFF" d="M799.8,26.7c-1.1,0-2.2-0.6-3.1-1.4l-6.2-6.2c-1.7-1.7-1.7-4.5,0-6.2c1.7-1.7,4.5-1.7,6.2,0l6.2,6.2
		c1.7,1.7,1.7,4.5,0,6.2C802,26.1,800.9,26.7,799.8,26.7L799.8,26.7z"/>
	<path fill="#FFFFFF" d="M843.3,26.7c-1.1,0-2.2-0.6-3.1-1.4c-1.7-1.7-1.7-4.5,0-6.2l6.2-6.2c1.7-1.7,4.5-1.7,6.2,0s1.7,4.5,0,6.2
		l-6.2,6.2C845.6,26.1,844.4,26.7,843.3,26.7L843.3,26.7z"/>
	<path fill="#FFFFFF" d="M793.6,76.1c-1.1,0-2.2-0.6-3.1-1.4c-1.7-1.7-1.7-4.5,0-6.2l6.2-6.2c1.7-1.7,4.5-1.7,6.2,0
		c1.7,1.7,1.7,4.5,0,6.2l-6.2,6.2C795.9,75.8,794.7,76.1,793.6,76.1L793.6,76.1z"/>
	<path fill="#FFFFFF" d="M966.3,180H773.4c-2.5,0-4.5-2-4.5-4.5s2-4.5,4.5-4.5h193.2c2.5,0,4.5,2,4.5,4.5
		C970.8,178,968.8,180,966.3,180z"/>
	<path fill="#FFFFFF" d="M830.4,175.5c-2.5,0-4.5-2-4.5-4.5v-43.8c0-2.5,2-4.5,4.5-4.5c2.5,0,4.5,2,4.5,4.5V171
		C834.6,173.5,832.7,175.5,830.4,175.5z"/>
	<path fill="#FFFFFF" d="M801.2,160.9c-1.1,0-2.2-0.6-3.1-1.4c-1.7-1.7-1.7-4.5,0-6.2l49.4-49.7c1.7-1.7,4.5-1.7,6.2,0
		c1.7,1.7,1.7,4.5,0,6.2l-49.4,49.7C803.4,160.3,802.3,160.9,801.2,160.9L801.2,160.9z"/>
	<path fill="#FFFFFF" d="M882.9,175.5c-2.5,0-4.5-2-4.5-4.5v-43.8c0-2.5,2-4.5,4.5-4.5c2.5,0,4.5,2,4.5,4.5V171
		C887.4,173.5,885.4,175.5,882.9,175.5z"/>
	<path fill="#FFFFFF" d="M853.7,160.9c-1.1,0-2.2-0.6-3.1-1.4c-1.7-1.7-1.7-4.5,0-6.2l49.7-49.7c1.7-1.7,4.5-1.7,6.2,0
		c1.7,1.7,1.7,4.5,0,6.2l-49.7,49.7C856,160.3,854.8,160.9,853.7,160.9L853.7,160.9z"/>
	<path fill="#FFFFFF" d="M935.7,175.5c-2.5,0-4.5-2-4.5-4.5v-43.8c0-2.5,2-4.5,4.5-4.5s4.5,2,4.5,4.5V171
		C939.9,173.5,938,175.5,935.7,175.5z"/>
	<path fill="#FFFFFF" d="M906.5,160.9c-1.1,0-2.2-0.6-3.1-1.4c-1.7-1.7-1.7-4.5,0-6.2l49.7-49.7c1.7-1.7,4.5-1.7,6.2,0
		c1.7,1.7,1.7,4.5,0,6.2l-49.7,49.7C908.8,160.3,907.6,160.9,906.5,160.9L906.5,160.9z"/>
</g>
</svg>
