<?xml version="1.0" encoding="utf-8"?>
<!-- Generator: Adobe Illustrator 18.1.1, SVG Export Plug-In . SVG Version: 6.00 Build 0)  -->
<svg version="1.1" id="Layer_1" xmlns="http://www.w3.org/2000/svg" xmlns:xlink="http://www.w3.org/1999/xlink" x="0px" y="0px"
	 viewBox="780 0 180 180" enable-background="new 780 0 180 180" xml:space="preserve">
<circle fill="#FFFFFF" cx="870" cy="90" r="90"/>
<g>
	<path d="M894.5,123.5h-12.3c-1.1,0-2.2,0.8-2.2,2.2c0,1.1,0.8,2.2,2.2,2.2h6.8c-5.4,3.3-12,5.4-18.8,5.4
		c-13.4,0-25.1-7.4-31.6-18.3c9.8,1.1,20.7,1.6,31.6,1.6s21.5-0.8,31.6-2.2C900,117.8,897.5,120.8,894.5,123.5z M833.8,100.3h12
		c1.1,0,2.2-0.8,2.2-2.2c0-1.1-0.8-2.2-2.2-2.2h-12.3c0-3.3,0.5-6.3,1.1-9.3H882c1.1,0,2.2-0.8,2.2-2.2c0-1.1-0.8-2.2-2.2-2.2h-45.8
		c1.4-3.8,3.5-7.1,6-10.4l0,0h56.1c2.5,3,4.6,6.5,6,10.4h-12.5c-1.1,0-2.2,0.8-2.2,2.2c0,1.1,0.8,2.2,2.2,2.2h13.6l0,0
		c0.8,3,1.1,6,1.1,9.3c0,4.1-0.5,7.9-1.9,11.4c-9.8,1.6-21.5,2.7-34.9,2.7c-13.3,0-25.1-1.1-34.9-2.7
		C834.6,105.2,834,102.8,833.8,100.3z M894.3,68.5h-47.9c6.3-5.4,14.7-9,24-9S887.7,63,894.3,68.5z M943.8,93.5
		c0-7.4-8.7-13.4-25.1-17.7c-1.6-0.5-3.5,0.5-3.8,2.2c-0.5,1.6,0.5,3.5,2.2,3.8c13.9,3.5,20.2,8.4,20.2,11.4
		c0,4.1-9.3,9.3-25.6,12.8c0.8-3.3,1.4-6.8,1.4-10.4c0-23.7-19.1-42.8-42.8-42.8S827.5,72,827.5,95.7c0,3.5,0.5,7.1,1.4,10.4
		c-16.3-3.5-25.6-8.7-25.6-12.8c0-3.3,6.3-7.9,20.7-11.7c1.6-0.5,2.7-2.2,2.5-3.8c-0.5-1.6-2.2-2.7-3.8-2.5
		c-17.2,4.9-25.9,10.9-25.9,18.3c0,9.5,14.7,16.1,34.6,19.9c6.5,15,21.5,25.3,39,25.3c17.4,0,32.4-10.4,39-25.3
		C929.1,109.9,943.8,103.1,943.8,93.5z"/>
	<path d="M916.3,47.8c3.3,0,5.7,2.7,5.7,5.7c0,3.3-2.7,5.7-5.7,5.7c-3.3,0-5.7-2.7-5.7-5.7C910.6,50.2,913.1,47.8,916.3,47.8z
		 M916.3,65.7c6.8,0,12.3-5.4,12.3-12.3s-5.4-12.3-12.3-12.3c-6.8,0-12.3,5.4-12.3,12.3S909.5,65.7,916.3,65.7z"/>
</g>
<path d="M899.2,100.7c1.1,0,2.3-0.8,2.3-2.3c0-1.1-0.8-2.3-2.3-2.3h-28.6c-1.1,0-2.3,0.8-2.3,2.3c0,1.1,0.8,2.3,2.3,2.3H899.2z"/>
</svg>
