<?xml version="1.0" encoding="utf-8"?>
<!-- Generator: Adobe Illustrator 18.1.1, SVG Export Plug-In . SVG Version: 6.00 Build 0)  -->
<svg version="1.1" id="Layer_1" xmlns="http://www.w3.org/2000/svg" xmlns:xlink="http://www.w3.org/1999/xlink" x="0px" y="0px"
	 viewBox="375 0 248.8 200" enable-background="new 375 0 248.8 200" xml:space="preserve">
<g>
	<path d="M541.1,156.9h-20.8c-1.8,0-3.7,1.4-3.7,3.7c0,1.8,1.4,3.7,3.7,3.7h11.6c-9.3,5.5-20.3,9.3-31.9,9.3
		c-22.6,0-42.6-12.5-53.7-31c16.7,1.8,35.2,2.8,53.7,2.8s36.5-1.4,53.7-3.7C550.4,147.2,546.3,152.3,541.1,156.9z M438,117.6h20.3
		c1.8,0,3.7-1.4,3.7-3.7c0-1.8-1.4-3.7-3.7-3.7h-20.8c0-5.5,0.9-10.7,1.8-15.7h80.5c1.8,0,3.7-1.4,3.7-3.7c0-1.8-1.4-3.7-3.7-3.7
		h-77.8c2.3-6.4,6-12.1,10.2-17.6l0,0h95.4c4.1,5.1,7.8,11.1,10.2,17.6h-21.3c-1.8,0-3.7,1.4-3.7,3.7c0,1.8,1.4,3.7,3.7,3.7h23.1
		l0,0c1.4,5.1,1.8,10.2,1.8,15.7c0,6.9-0.9,13.4-3.2,19.4c-16.7,2.8-36.5,4.6-59.3,4.6c-22.6,0-42.6-1.8-59.3-4.6
		C439.3,126,438.4,121.7,438,117.6z M540.7,63.5h-81.5c10.7-9.3,25-15.3,40.7-15.3C515.6,48.2,529.6,54.2,540.7,63.5z M625,106
		c0-12.5-14.8-22.6-42.6-30.1c-2.8-0.9-6,0.9-6.4,3.7c-0.9,2.8,0.9,6,3.7,6.4c23.6,6,34.2,14.4,34.2,19.4c0,6.9-15.7,15.7-43.5,21.7
		c1.4-5.5,2.3-11.6,2.3-17.6c0-40.2-32.4-72.6-72.6-72.6s-72.6,32.4-72.6,72.6c0,6,0.9,12.1,2.3,17.6c-27.8-6-43.5-14.8-43.5-21.7
		c0-5.5,10.7-13.4,35.2-19.9c2.8-0.9,4.6-3.7,4.1-6.4c-0.9-2.8-3.7-4.6-6.4-4.1c-29.2,8.4-44,18.5-44,31c0,16.2,25,27.3,58.8,33.8
		c11.1,25.5,36.5,43.1,66.2,43.1c29.6,0,55-17.6,66.2-43.1C600,133.8,625,122.2,625,106z"/>
	<path d="M578.2,28.3c5.5,0,9.8,4.6,9.8,9.8c0,5.5-4.6,9.8-9.8,9.8c-5.5,0-9.8-4.6-9.8-9.8C568.5,32.4,572.6,28.3,578.2,28.3z
		 M578.2,58.9c11.6,0,20.8-9.3,20.8-20.8s-9.3-20.9-20.8-20.9c-11.5,0-20.8,9.3-20.8,20.8S566.6,58.9,578.2,58.9z"/>
	<path d="M547.2,117.6c1.8,0,3.7-1.4,3.7-3.7c0-1.8-1.4-3.7-3.7-3.7h-46.8c-1.8,0-3.7,1.4-3.7,3.7c0,1.8,1.4,3.7,3.7,3.7H547.2z"/>
</g>
</svg>
