<?xml version="1.0" encoding="utf-8"?>
<!-- Generator: Adobe Illustrator 18.1.1, SVG Export Plug-In . SVG Version: 6.00 Build 0)  -->
<svg version="1.1" id="Layer_1" xmlns="http://www.w3.org/2000/svg" xmlns:xlink="http://www.w3.org/1999/xlink" x="0px" y="0px"
	 viewBox="734.2 0 271.5 180" enable-background="new 734.2 0 271.5 180" xml:space="preserve">
<g>
	<path fill="#FFFFFF" d="M914.7,151.8h-22.6c-2,0-4,1.5-4,4c0,2,1.5,4,4,4h12.6c-10.1,6-22.1,10.1-34.7,10.1
		c-24.6,0-46.3-13.6-58.3-33.7c18.1,2,38.2,3,58.3,3c20.1,0,39.7-1.5,58.3-4C924.8,141.3,920.3,146.8,914.7,151.8z M802.6,109.1
		h22.1c2,0,4-1.5,4-4c0-2-1.5-4-4-4h-22.6c0-6,1-11.6,2-17.1h87.5c2,0,4-1.5,4-4c0-2-1.5-4-4-4h-84.5c2.5-7,6.5-13.1,11.1-19.1l0,0
		h103.6c4.5,5.5,8.5,12.1,11.1,19.1h-23.1c-2,0-4,1.5-4,4c0,2,1.5,4,4,4h25.1l0,0c1.5,5.5,2,11.1,2,17.1c0,7.5-1,14.6-3.5,21.1
		c-18.1,3-39.7,5-64.4,5c-24.6,0-46.3-2-64.4-5C804.1,118.2,803.1,113.6,802.6,109.1z M914.2,50.3h-88.5
		c11.6-10.1,27.2-16.6,44.2-16.6S902.2,40.2,914.2,50.3z M1005.8,96.5c0-13.6-16.1-24.6-46.3-32.7c-3-1-6.5,1-7,4c-1,3,1,6.5,4,7
		c25.6,6.5,37.2,15.6,37.2,21.1c0,7.5-17.1,17.1-47.3,23.6c1.5-6,2.5-12.6,2.5-19.1c0-43.7-35.2-78.9-78.9-78.9
		c-43.7,0-78.9,35.2-78.9,78.9c0,6.5,1,13.1,2.5,19.1c-30.2-6.5-47.3-16.1-47.3-23.6c0-6,11.6-14.6,38.2-21.6c3-1,5-4,4.5-7
		c-1-3-4-5-7-4.5c-31.7,9.1-47.8,20.1-47.8,33.7c0,17.6,27.2,29.7,63.9,36.7c12.1,27.7,39.7,46.8,71.9,46.8s59.8-19.1,71.9-46.8
		C978.6,126.7,1005.8,114.1,1005.8,96.5z"/>
	<path fill="#FFFFFF" d="M955,12.1c6,0,10.6,5,10.6,10.6c0,6-5,10.6-10.6,10.6c-6,0-10.6-5-10.6-10.6
		C944.4,16.6,948.9,12.1,955,12.1z M955,45.3c12.6,0,22.6-10.1,22.6-22.6S967.5,0,955,0s-22.6,10.1-22.6,22.6S942.4,45.3,955,45.3z"
		/>
	<path fill="#FFFFFF" d="M921.3,109.1c2,0,4-1.5,4-4c0-2-1.5-4-4-4h-50.8c-2,0-4,1.5-4,4c0,2,1.5,4,4,4H921.3z"/>
</g>
</svg>
