<?xml version="1.0" encoding="utf-8"?>
<!-- Generator: Adobe Illustrator 19.0.1, SVG Export Plug-In . SVG Version: 6.00 Build 0)  -->
<svg version="1.1" id="Layer_1" xmlns="http://www.w3.org/2000/svg" xmlns:xlink="http://www.w3.org/1999/xlink" x="0px" y="0px"
	 viewBox="40 -40 180 180" style="enable-background:new 40 -40 180 180;" xml:space="preserve">
<style type="text/css">
	.st0{fill:#FFFFFF;}
</style>
<g>
	<g>
		<polygon class="st0" points="83.3,137.1 75.8,135.6 82.1,104.8 89.6,106.3 		"/>
		<g>
			<path class="st0" d="M129.6,83.7c15.1,0,30.1,0,49.8,0.4v-78c-20.5-4.2-35.5-6.2-49.8-6.2s-29.4,1.9-49.8,6.2l0.4,78
				C99.5,83.7,114.5,83.7,129.6,83.7L129.6,83.7z M183.3,91.8L183.3,91.8c-42.9-0.4-64.1-0.4-107,0c-0.8,0-1.9-0.4-2.7-1.2
				s-1.2-1.9-1.2-2.7V3c0-1.9,1.2-3.5,3.1-3.9c22.4-5,38.6-7,54.5-7c15.5,0,31.7,1.9,54.5,7c1.9,0.4,3.1,1.9,3.1,3.9v85
				c0,1.2-0.4,1.9-1.2,2.7C185.2,91.4,184.5,91.8,183.3,91.8z"/>
			<path class="st0" d="M175.6,3.8c-1.9,0-3.9-1.5-3.9-3.9v-27.4c-13.9-3.1-27.4-4.2-42.1-4.2c-16.6,0-34,1.5-41.7,3.9V0.4
				c0,1.9-1.5,3.9-3.9,3.9c-2.3,0-3.9-1.5-3.9-3.9v-31c0-1.5,0.8-3.1,2.3-3.5c8.5-3.5,30.1-5.4,47.1-5.4c16.2,0,30.9,1.5,46.7,5
				c1.9,0.4,3.1,1.9,3.1,3.9V0.3C179.4,2.2,177.9,3.8,175.6,3.8z"/>
			<path class="st0" d="M80.2,100.3l49.8,14.3l49.8-14.3v-8.5H80.1v8.5H80.2z M129.6,122.3c-0.4,0-0.8,0-1.2,0l-53.7-15.5
				c-1.2-0.4-2.3-1.9-2.3-3.9V87.4c0-1.9,1.5-3.9,3.9-3.9h107c1.9,0,3.9,1.5,3.9,3.9V103c0,1.5-1.2,3.1-2.7,3.5L130.8,122
				C130.4,122.3,130,122.3,129.6,122.3z"/>
			<rect x="126.1" y="-38.3" class="st0" width="7.7" height="30.5"/>
			
				<rect x="158.6" y="115.3" transform="matrix(-0.1939 -0.981 0.981 -0.1939 91.8133 313.7331)" class="st0" width="32.4" height="7.7"/>
			<rect x="87.9" y="91.8" class="st0" width="7.7" height="15.5"/>
			<rect x="103" y="91.8" class="st0" width="7.7" height="22.8"/>
			<rect x="118.4" y="91.8" class="st0" width="7.7" height="22.8"/>
			<rect x="133.5" y="91.8" class="st0" width="7.7" height="22.8"/>
			<rect x="148.9" y="91.8" class="st0" width="7.7" height="22.8"/>
			<rect x="164.4" y="91.8" class="st0" width="7.7" height="15.5"/>
		</g>
	</g>
	<path class="st0" d="M130,25.8c4.6,0,8.1,3.9,8.1,8.1c0,4.6-3.9,8.1-8.1,8.1c-4.6,0-8.1-3.9-8.1-8.1
		C121.9,29.6,125.4,25.8,130,25.8z M130,51.7c9.7,0,17.4-7.7,17.4-17.4s-7.7-17.4-17.4-17.4s-17.4,7.7-17.4,17.4
		S120.3,51.7,130,51.7z"/>
	<circle class="st0" cx="177.9" cy="134.7" r="3.9"/>
	<circle class="st0" cx="79.8" cy="135.6" r="3.9"/>
</g>
</svg>
