<?xml version="1.0" encoding="utf-8"?>
<!-- Generator: Adobe Illustrator 18.1.1, SVG Export Plug-In . SVG Version: 6.00 Build 0)  -->
<svg version="1.1" id="Layer_1" xmlns="http://www.w3.org/2000/svg" xmlns:xlink="http://www.w3.org/1999/xlink" x="0px" y="0px"
	 viewBox="780 0 180 180" enable-background="new 780 0 180 180" xml:space="preserve">
<circle fill="#FFFFFF" cx="870" cy="90" r="90"/>
<g>
	<g>
		<rect x="837.5" y="124.8" transform="matrix(-0.9811 -0.1936 0.1936 -0.9811 1637.9338 430.1692)" width="4.9" height="20.6"/>
		<g>
			<path d="M869.8,111.1c9.6,0,19.1,0,31.6,0.2V61.8c-13-2.7-22.6-3.9-31.6-3.9c-9.1,0-18.6,1.2-31.6,3.9l0.2,49.5
				C850.6,111.1,860.2,111.1,869.8,111.1L869.8,111.1z M903.9,116.2L903.9,116.2c-27.2-0.2-40.7-0.2-67.9,0c-0.5,0-1.2-0.2-1.7-0.7
				s-0.7-1.2-0.7-1.7V59.8c0-1.2,0.7-2.2,2-2.5C849.7,54.2,860,53,870,53c9.8,0,20.1,1.2,34.6,4.4c1.2,0.2,2,1.2,2,2.5v53.9
				c0,0.7-0.2,1.2-0.7,1.7C905.1,116,904.6,116.2,903.9,116.2z"/>
			<path d="M898.9,60.3c-1.2,0-2.5-1-2.5-2.5V40.5c-8.8-2-17.4-2.7-26.7-2.7c-10.5,0-21.6,1-26.5,2.5v17.9c0,1.2-1,2.5-2.5,2.5
				s-2.5-1-2.5-2.5V38.5c0-1,0.5-2,1.5-2.2c5.4-2.2,19.1-3.4,29.9-3.4c10.3,0,19.6,1,29.7,3.2c1.2,0.2,2,1.2,2,2.5v19.6
				C901.4,59.3,900.4,60.3,898.9,60.3z"/>
			<path d="M838.4,121.6l31.6,9.1l31.6-9.1v-5.4h-63.3V121.6z M869.8,135.6c-0.2,0-0.5,0-0.7,0l-34.1-9.8c-0.7-0.2-1.5-1.2-1.5-2.5
				v-9.8c0-1.2,1-2.5,2.5-2.5h67.9c1.2,0,2.5,1,2.5,2.5v9.8c0,1-0.7,2-1.7,2.2l-34.1,9.8C870.3,135.6,870,135.6,869.8,135.6z"/>
			<rect x="867.6" y="33.6" width="4.9" height="19.4"/>
			<rect x="888.1" y="131.1" transform="matrix(-0.1939 -0.981 0.981 -0.1939 941.6109 1040.8815)" width="20.6" height="4.9"/>
			<rect x="843.3" y="116.2" width="4.9" height="9.8"/>
			<rect x="852.8" y="116.2" width="4.9" height="14.5"/>
			<rect x="862.6" y="116.2" width="4.9" height="14.5"/>
			<rect x="872.2" y="116.2" width="4.9" height="14.5"/>
			<rect x="882" y="116.2" width="4.9" height="14.5"/>
			<rect x="891.8" y="116.2" width="4.9" height="9.8"/>
		</g>
	</g>
	<path d="M870,74.3c2.9,0,5.2,2.5,5.2,5.2c0,2.9-2.5,5.2-5.2,5.2c-2.9,0-5.2-2.5-5.2-5.2C864.9,76.8,867.1,74.3,870,74.3z M870,90.7
		c6.1,0,11-4.9,11-11s-4.9-11-11-11s-11,4.9-11,11S863.9,90.7,870,90.7z"/>
	<circle cx="900.4" cy="143.5" r="2.5"/>
	<circle cx="838.1" cy="144.7" r="2.5"/>
</g>
</svg>
