<?xml version="1.0" encoding="utf-8"?>
<!-- Generator: Adobe Illustrator 18.1.1, SVG Export Plug-In . SVG Version: 6.00 Build 0)  -->
<svg version="1.1" id="Layer_1" xmlns="http://www.w3.org/2000/svg" xmlns:xlink="http://www.w3.org/1999/xlink" x="0px" y="0px"
	 viewBox="780 0 180 180" enable-background="new 780 0 180 180" xml:space="preserve">
<g>
	<g>
		<polygon points="823.3,177.1 815.8,175.6 822.1,144.8 829.6,146.3 		"/>
		<g>
			<path d="M869.6,123.7c15.1,0,30.1,0,49.8,0.4v-78c-20.5-4.2-35.5-6.2-49.8-6.2c-14.3,0-29.4,1.9-49.8,6.2l0.4,78
				C839.5,123.7,854.5,123.7,869.6,123.7L869.6,123.7z M923.3,131.8L923.3,131.8c-42.9-0.4-64.1-0.4-107,0c-0.8,0-1.9-0.4-2.7-1.2
				s-1.2-1.9-1.2-2.7V43c0-1.9,1.2-3.5,3.1-3.9c22.4-5,38.6-7,54.5-7c15.5,0,31.7,1.9,54.5,7c1.9,0.4,3.1,1.9,3.1,3.9v85
				c0,1.2-0.4,1.9-1.2,2.7C925.2,131.4,924.5,131.8,923.3,131.8z"/>
			<path d="M915.6,43.8c-1.9,0-3.9-1.5-3.9-3.9V12.5c-13.9-3.1-27.4-4.2-42.1-4.2c-16.6,0-34,1.5-41.7,3.9v28.2
				c0,1.9-1.5,3.9-3.9,3.9c-2.3,0-3.9-1.5-3.9-3.9V9.4c0-1.5,0.8-3.1,2.3-3.5c8.5-3.5,30.1-5.4,47.1-5.4c16.2,0,30.9,1.5,46.7,5
				c1.9,0.4,3.1,1.9,3.1,3.9v30.9C919.4,42.2,917.9,43.8,915.6,43.8z"/>
			<path d="M820.2,140.3l49.8,14.3l49.8-14.3v-8.5h-99.7V140.3z M869.6,162.3c-0.4,0-0.8,0-1.2,0l-53.7-15.5
				c-1.2-0.4-2.3-1.9-2.3-3.9v-15.5c0-1.9,1.5-3.9,3.9-3.9h107c1.9,0,3.9,1.5,3.9,3.9V143c0,1.5-1.2,3.1-2.7,3.5L870.8,162
				C870.4,162.3,870,162.3,869.6,162.3z"/>
			<rect x="866.1" y="1.7" width="7.7" height="30.5"/>
			<rect x="898.6" y="155.3" transform="matrix(0.1939 0.981 -0.981 0.1939 893.5489 -769.1325)" width="32.4" height="7.7"/>
			<rect x="827.9" y="131.8" width="7.7" height="15.5"/>
			<rect x="843" y="131.8" width="7.7" height="22.8"/>
			<rect x="858.4" y="131.8" width="7.7" height="22.8"/>
			<rect x="873.5" y="131.8" width="7.7" height="22.8"/>
			<rect x="888.9" y="131.8" width="7.7" height="22.8"/>
			<rect x="904.4" y="131.8" width="7.7" height="15.5"/>
		</g>
	</g>
	<path d="M870,65.8c4.6,0,8.1,3.9,8.1,8.1c0,4.6-3.9,8.1-8.1,8.1c-4.6,0-8.1-3.9-8.1-8.1C861.9,69.6,865.4,65.8,870,65.8z M870,91.7
		c9.7,0,17.4-7.7,17.4-17.4s-7.7-17.4-17.4-17.4s-17.4,7.7-17.4,17.4S860.3,91.7,870,91.7z"/>
	<circle cx="917.9" cy="174.7" r="3.9"/>
	<circle cx="819.8" cy="175.6" r="3.9"/>
</g>
</svg>
