<?xml version="1.0" encoding="utf-8"?>
<!-- Generator: Adobe Illustrator 18.1.0, SVG Export Plug-In . SVG Version: 6.00 Build 0)  -->
<!DOCTYPE svg PUBLIC "-//W3C//DTD SVG 1.1//EN" "http://www.w3.org/Graphics/SVG/1.1/DTD/svg11.dtd">
<svg version="1.1" id="Layer_1" xmlns="http://www.w3.org/2000/svg" xmlns:xlink="http://www.w3.org/1999/xlink" x="0px" y="0px"
	 viewBox="0 0 514 514" enable-background="new 0 0 514 514" xml:space="preserve">
<g>
	<defs>
		<rect id="SVGID_1_" x="93.9" y="135.5" width="326.2" height="265.1"/>
	</defs>
	<clipPath id="SVGID_2_">
		<use xlink:href="#SVGID_1_"  overflow="visible"/>
	</clipPath>
	<path clip-path="url(#SVGID_2_)" d="M196.4,400.6c-37.8,0-73-11.1-102.6-30.1c5.2,0.6,10.6,0.9,16,0.9c31.4,0,60.2-10.7,83.1-28.7
		c-29.3-0.5-54-19.9-62.5-46.5c4.1,0.8,8.3,1.2,12.6,1.2c6.1,0,12-0.8,17.6-2.3c-30.6-6.1-53.7-33.2-53.7-65.6c0-0.3,0-0.6,0-0.8
		c9,5,19.3,8,30.3,8.4c-18-12-29.8-32.5-29.8-55.7c0-12.3,3.3-23.8,9.1-33.6c33,40.5,82.3,67.1,138,69.9c-1.1-4.9-1.7-10-1.7-15.3
		c0-37,30-66.9,66.9-66.9c19.3,0,36.6,8.1,48.9,21.1c15.2-3,29.6-8.6,42.5-16.2c-5,15.6-15.6,28.7-29.4,37
		c13.5-1.6,26.4-5.2,38.4-10.5c-9,13.4-20.3,25.2-33.4,34.6c0.1,2.9,0.2,5.8,0.2,8.7C386.9,298.6,319.5,400.6,196.4,400.6"/>
</g>
<circle fill="none" stroke="#000000" stroke-width="16" stroke-miterlimit="10" cx="257" cy="257" r="249"/>
</svg>
