<?xml version="1.0" encoding="utf-8"?>
<!-- Generator: Adobe Illustrator 19.0.1, SVG Export Plug-In . SVG Version: 6.00 Build 0)  -->
<svg version="1.1" id="Layer_1" xmlns="http://www.w3.org/2000/svg" xmlns:xlink="http://www.w3.org/1999/xlink" x="0px" y="0px"
	 viewBox="207 -207 514 514" style="enable-background:new 207 -207 514 514;" xml:space="preserve">
<style type="text/css">
	.st0{fill:#FFFFFF;}
</style>
<g>
	<g>
		<path class="st0" d="M403.4,193.6c-37.8,0-73-11.1-102.6-30.1c5.2,0.6,10.6,0.9,16,0.9c31.4,0,60.2-10.7,83.1-28.7
			c-29.3-0.5-54-19.9-62.5-46.5c4.1,0.8,8.3,1.2,12.6,1.2c6.1,0,12-0.8,17.6-2.3C337,82,313.9,54.9,313.9,22.5c0-0.3,0-0.6,0-0.8
			c9,5,19.3,8,30.3,8.4c-18-12-29.8-32.5-29.8-55.7c0-12.3,3.3-23.8,9.1-33.6c33,40.5,82.3,67.1,138,69.9c-1.1-4.9-1.7-10-1.7-15.3
			c0-37,30-66.9,66.9-66.9c19.3,0,36.6,8.1,48.9,21.1c15.2-3,29.6-8.6,42.5-16.2c-5,15.6-15.6,28.7-29.4,37
			c13.5-1.6,26.4-5.2,38.4-10.5c-9,13.4-20.3,25.2-33.4,34.6c0.1,2.9,0.2,5.8,0.2,8.7C593.9,91.6,526.5,193.6,403.4,193.6"/>
	</g>
</g>
<path class="st0" d="M464,307c-68.6,0-133.2-26.7-181.7-75.3C233.7,183.2,207,118.6,207,50s26.7-133.2,75.3-181.7
	C330.8-180.3,395.4-207,464-207s133.2,26.7,181.7,75.3C694.3-83.2,721-18.6,721,50c0,68.6-26.7,133.2-75.3,181.7S532.6,307,464,307z
	 M464-191C331.1-191,223-82.9,223,50s108.1,241,241,241S705,182.9,705,50S596.9-191,464-191z"/>
</svg>
