<svg xmlns="http://www.w3.org/2000/svg" viewBox="0 0 75 75"><path fill="#ffffff" d="M25.1 33.5c1.8 0 3.3 1.5 3.3 3.3 0 1.8-1.5 3.3-3.3 3.3s-3.3-1.5-3.3-3.3C21.8 35 23.3 33.5 25.1 33.5zM42.1 45c1.8 0 3.3 1.5 3.3 3.3s-1.5 3.3-3.3 3.3 -3.3-1.5-3.3-3.3S40.3 45 42.1 45zM57.8 21.8c1.8 0 3.3 1.5 3.3 3.3 0 1.8-1.5 3.3-3.3 3.3s-3.3-1.5-3.3-3.3C54.5 23.3 55.9 21.8 57.8 21.8zM63.7 61.3H13.7V43.8l5.6-2.2c1.4 1.7 3.5 2.9 5.9 2.9 1.8 0 3.5-0.7 4.8-1.7l5 3.4c-0.2 0.8-0.4 1.5-0.4 2.3 0 4.1 3.4 7.5 7.5 7.5s7.5-3.4 7.5-7.5c0-1.8-0.7-3.5-1.7-4.8L55.5 32.2c0.8 0.2 1.5 0.4 2.3 0.4 4.1 0 7.5-3.4 7.5-7.5s-3.4-7.5-7.5-7.5 -7.5 3.4-7.5 7.5c0 1.8 0.7 3.5 1.7 4.8l-7.6 11.3c-0.7-0.2-1.5-0.4-2.2-0.4 -1.8 0-3.5 0.7-4.8 1.7l-5.1-3.4c0.2-0.7 0.4-1.5 0.4-2.3 0-4.1-3.4-7.5-7.5-7.5s-7.5 3.4-7.5 7.5c0 0.3 0 0.5 0.1 0.8l-4 1.6V11.3c0-1.4-1.1-2.4-2.4-2.4 -1.4 0-2.4 1.1-2.4 2.4V63.8c0 1.4 1.1 2.4 2.4 2.4H63.8c1.4 0 2.4-1.1 2.4-2.4C66.1 62.4 65 61.3 63.7 61.3z"/></svg>