<?xml version="1.0" encoding="utf-8"?>
<!-- Generator: Adobe Illustrator 18.1.0, SVG Export Plug-In . SVG Version: 6.00 Build 0)  -->
<!DOCTYPE svg PUBLIC "-//W3C//DTD SVG 1.1//EN" "http://www.w3.org/Graphics/SVG/1.1/DTD/svg11.dtd">
<svg version="1.1" id="Layer_1" xmlns="http://www.w3.org/2000/svg" xmlns:xlink="http://www.w3.org/1999/xlink" x="0px" y="0px"
	 viewBox="249.3 -215.7 800.1 800.1" enable-background="new 249.3 -215.7 800.1 800.1" xml:space="preserve">
<circle fill="#FFFFFF" cx="649.3" cy="184.3" r="400"/>
<path d="M649.3,47.2l-203.2,76.2l60.9,253.9l25.4,7.1l-60.9-245.8l177.8-64l177.8,64l-60.9,245.8l25.4-7.1l60.9-253.9L649.3,47.2z
	 M612.8-69.6c-24.4,0-24.4,24.4-24.4,24.4h119.9c0,0,0-24.4-24.4-24.4C683.9-69.6,612.8-69.6,612.8-69.6z M541.7-27v95.5l24.4-7.1
	v-64h167.6v64l24.4,7.1V-27H541.7z M823,389.5c-21.3,14.2-31.5,25.4-78.2,25.4c-32.5,0-63-23.4-95.5-23.4c-31.5,0-64,23.4-95.5,23.4
	c-35.6,0-63-17.3-78.2-28.4c-20.3-12.2-30.5,10.2-14.2,21.3c0,0,30.5,30.5,94.5,30.5c34.5,0,58.9-23.4,93.5-23.4
	c35.6,0,59.9,23.4,95.5,23.4c59.9,0,95.5-30.5,95.5-30.5C855.5,395.6,838.3,376.3,823,389.5z"/>
<path d="M742.1,172.1c-9.1,0-18.3-4.1-23.4-11.2c-5.1-6.1-7.1-14.2-6.1-22.3c1-8.1,5.1-15.2,11.2-19.3c12.2-10.2,31.5-7.1,41.6,5.1
	c5.1,6.1,7.1,14.2,6.1,22.3c-1,8.1-5.1,15.2-11.2,19.3C755.4,170.1,748.2,172.1,742.1,172.1z M742.1,133.5c-1,0-4.1,0-6.1,2
	c-2,2-3,4.1-4.1,6.1c0,2,0,5.1,2,7.1c2,2,4.1,4.1,7.1,4.1c1,0,4.1,0,6.1-2c2-2,3-4.1,4.1-6.1c0-2,0-5.1-2-7.1
	C747.2,134.6,745.2,133.5,742.1,133.5z"/>
<path d="M556.3,172.1c-9.1,0-18.3-4.1-23.4-11.2c-5.1-6.1-7.1-14.2-6.1-22.3c1-7.1,5.1-14.2,11.2-19.3c12.2-10.2,31.5-7.1,41.6,5.1
	c5.1,6.1,7.1,14.2,6.1,22.3c-1,8.1-5.1,15.2-11.2,19.3C568.4,170.1,562.4,172.1,556.3,172.1z M556.3,133.5c-1,0-4.1,0-6.1,2
	c-2,2-3,4.1-4.1,6.1c0,2,0,5.1,2,7.1c2,2,4.1,4.1,7.1,4.1c1,0,4.1,0,6.1-2c2-2,3-4.1,4.1-6.1c0-2,0-5.1-2-7.1
	C561.3,134.6,558.3,133.5,556.3,133.5z"/>
</svg>
