<?xml version="1.0" encoding="utf-8"?>
<!-- Generator: Adobe Illustrator 19.0.0, SVG Export Plug-In . SVG Version: 6.00 Build 0)  -->
<svg version="1.1" id="Layer_1" xmlns="http://www.w3.org/2000/svg" xmlns:xlink="http://www.w3.org/1999/xlink" x="0px" y="0px"
	 viewBox="335.8 -453.8 1260.2 1260.2" style="enable-background:new 335.8 -453.8 1260.2 1260.2;" xml:space="preserve">
<style type="text/css">
	.st0{fill:#FFFFFF;}
</style>
<circle class="st0" cx="965.9" cy="176.3" r="630.1"/>
<g>
	<path d="M1097.1,21.1c-14.8,0-29.6-7.4-38.8-18.5c-7.4-9.2-11.1-22.2-9.2-35.1c1.8-12.9,7.4-24,18.5-31.4
		c20.3-16.6,51.7-11.1,68.4,9.2c7.4,11.1,11.1,22.2,9.2,35.1c-1.8,12.9-7.4,24-18.5,31.4C1117.4,17.4,1108.1,21.1,1097.1,21.1z
		 M1097.1-41.7c-1.8,0-5.5,0-9.2,3.7c-3.7,1.8-5.5,5.5-5.5,9.2s0,7.4,3.7,11.1c3.7,3.7,7.4,5.5,12.9,5.5c1.8,0,5.5,0,9.2-3.7
		c3.7-1.8,5.5-5.5,5.5-9.2s0-7.4-3.7-11.1C1106.3-39.8,1102.6-41.7,1097.1-41.7z"/>
	<path d="M812.5,562.5H707.2c-18.5,0-33.3-14.8-33.3-33.3l0,0c0-16.6,12.9-29.6,29.6-29.6H818c16.6,0,29.6,12.9,29.6,29.6l0,0
		C845.8,547.7,831,562.5,812.5,562.5z"/>
	<path d="M1320.6,532.9h-236.5c7.4-7.4,12.9-16.6,18.5-25.9c103.5-146,142.3-291.9,62.8-461.9l73.9-90.5c1.8-3.7,3.7-7.4,3.7-11.1
		c0-3.7-1.8-7.4-5.5-11.1l-16.6-12.9l49.9-61c5.5-7.4,3.7-16.6-1.8-22.2l-70.2-57.3c-5.5-1.8-9.2-1.8-12.9-1.8s-7.4,1.8-11.1,5.5
		l-49.9,61l-18.5-14.8c-7.4-5.5-16.6-3.7-22.2,1.8L773.7,211.4c-1.8,3.7-3.7,7.4-3.7,11.1s1.8,7.4,5.5,11.1l5.5,5.5
		c-16.6,33.3-9.2,75.8,20.3,99.8c14.8,11.1,33.3,18.5,51.7,18.5c1.8,0,5.5,0,7.4,0c16.6-1.8,29.6-7.4,42.5-16.6l0,0
		c3.7,1.8,5.5,3.7,9.2,3.7s9.2-1.8,11.1-5.5L1132,91.4c51.7,116.4,29.6,255-46.2,360.3c-22.2,31.4-40.6,59.1-70.2,81.3H611.1
		c-9.2,0-14.8,7.4-14.8,14.8v12.9c0,9.2,7.4,14.8,14.8,14.8h709.5c9.2,0,14.8-7.4,14.8-14.8v-12.9
		C1335.4,540.3,1329.9,532.9,1320.6,532.9z M1189.4-185.8l46.2,38.8l-38.8,46.2l-46.2-38.8L1189.4-185.8z M858.7,326
		c-12.9,1.8-25.9-1.8-37-11.1c-16.6-12.9-22.2-35.1-14.8-55.4l72.1,59.1C871.7,322.3,866.1,324.1,858.7,326z M912.3,303.8
		c-1.8-1.8-3.7-1.8-5.5-1.8L807,218.8l291.9-356.6l105.3,85L912.3,303.8z"/>
</g>
</svg>
