<?xml version="1.0" encoding="utf-8"?>
<!-- Generator: Adobe Illustrator 18.1.0, SVG Export Plug-In . SVG Version: 6.00 Build 0)  -->
<!DOCTYPE svg PUBLIC "-//W3C//DTD SVG 1.1//EN" "http://www.w3.org/Graphics/SVG/1.1/DTD/svg11.dtd">
<svg version="1.1" id="Layer_1" xmlns="http://www.w3.org/2000/svg" xmlns:xlink="http://www.w3.org/1999/xlink" x="0px" y="0px"
	 viewBox="13.1 -221.5 1260.1 1260.1" enable-background="new 13.1 -221.5 1260.1 1260.1" xml:space="preserve">
<circle fill="#FFFFFF" cx="643.2" cy="408.6" r="630.1"/>
<path fill="none" stroke="#000000" stroke-width="33" stroke-miterlimit="10" d="M977.6,30.6c-7.8,0-15.7,1.1-24.6,3.4
	c-22.4,5.6-48.1,20.1-70.5,42.5L759.5,199.5l-433-43.6c-2.2,0-4.5,1.1-5.6,2.2l-53.7,53.7c-3.4,3.4-2.2,9,2.2,11.2l322.2,144.3
	l-72.7,72.7c-14.5,14.5-26.9,32.4-30.2,38l-134.3-13.4c-2.2,0-4.5,1.1-5.6,2.2l-42.5,42.5c-3.4,3.4-2.2,9,2.2,11.2L460.7,590
	l69.4,152.2c2.2,4.5,7.8,5.6,11.2,2.2l42.5-42.5c1.1-1.1,2.2-3.4,2.2-5.6L572.6,562c4.5-3.4,23.5-15.7,38-30.2l72.7-72.7
	l145.5,323.4c2.2,4.5,7.8,5.6,11.2,2.2l53.7-53.7c1.1-1.1,2.2-3.4,2.2-5.6l-43.6-433l123.1-123.1c22.4-22.4,36.9-48.1,42.5-70.5
	s4.5-43.6-7.8-54.8C1001.1,35,989.9,30.6,977.6,30.6z"/>
</svg>
