<?xml version="1.0" encoding="utf-8"?>
<!-- Generator: Adobe Illustrator 18.1.0, SVG Export Plug-In . SVG Version: 6.00 Build 0)  -->
<!DOCTYPE svg PUBLIC "-//W3C//DTD SVG 1.1//EN" "http://www.w3.org/Graphics/SVG/1.1/DTD/svg11.dtd">
<svg version="1.1" id="Layer_1" xmlns="http://www.w3.org/2000/svg" xmlns:xlink="http://www.w3.org/1999/xlink" x="0px" y="0px"
	 viewBox="14.4 -222 1260.1 1260.1" enable-background="new 14.4 -222 1260.1 1260.1" xml:space="preserve">
<circle fill="#FFFFFF" cx="644.4" cy="408.1" r="630.1"/>
<g>
	<path d="M429.8,116.1c-32.4,0-58.7,26.2-58.7,58.7s26.2,58.7,58.7,58.7s58.7-26.2,58.7-58.7C487.2,142.3,461,116.1,429.8,116.1z
		 M429.8,272.1c-53.7,0-97.3-43.7-97.3-97.3s43.7-97.3,97.3-97.3s97.3,43.7,97.3,97.3S483.4,272.1,429.8,272.1z"/>
	<path d="M429.8,369.5c-11.2,0-20-8.7-20-20v-38.7c0-11.2,8.7-20,20-20c11.2,0,20,8.7,20,20v38.7C448.5,362,439.8,369.5,429.8,369.5
		z"/>
	<path d="M429.8,57.4c-11.2,0-20-8.7-20-20V0c0-11.2,8.7-20,20-20c11.2,0,20,8.7,20,20v38.7C448.5,50,439.8,57.4,429.8,57.4z"/>
	<path d="M604.5,194.7h-38.7c-11.2,0-20-8.7-20-20c0-11.2,8.7-20,20-20h38.7c11.2,0,20,8.7,20,20S615.7,194.7,604.5,194.7z"/>
	<path d="M292.5,194.7h-38.7c-11.2,0-20-8.7-20-20c0-11.2,8.7-20,20-20h38.7c11.2,0,20,8.7,20,20S303.7,194.7,292.5,194.7z"/>
	<path d="M553.3,318.3c-5,0-10-2.5-13.7-6.2l-27.5-27.5c-7.5-7.5-7.5-20,0-27.5c7.5-7.5,20-7.5,27.5,0l27.5,27.5
		c7.5,7.5,7.5,20,0,27.5C563.3,317,558.3,318.3,553.3,318.3L553.3,318.3z"/>
	<path d="M332.4,98.6c-5,0-10-2.5-13.7-6.2l-27.5-27.5c-7.5-7.5-7.5-20,0-27.5c7.5-7.5,20-7.5,27.5,0l27.5,27.5
		c7.5,7.5,7.5,20,0,27.5C342.4,96.1,337.4,98.6,332.4,98.6L332.4,98.6z"/>
	<path d="M525.9,98.6c-5,0-10-2.5-13.7-6.2c-7.5-7.5-7.5-20,0-27.5l27.5-27.5c7.5-7.5,20-7.5,27.5,0s7.5,20,0,27.5l-27.5,27.5
		C535.9,96.1,530.9,98.6,525.9,98.6L525.9,98.6z"/>
	<path d="M305,318.3c-5,0-10-2.5-13.7-6.2c-7.5-7.5-7.5-20,0-27.5l27.5-27.5c7.5-7.5,20-7.5,27.5,0c7.5,7.5,7.5,20,0,27.5L318.7,312
		C315,317,310,318.3,305,318.3L305,318.3z"/>
	<path d="M1072.5,780.1H215.1c-11.2,0-20-8.7-20-20c0-11.2,8.7-20,20-20h858.7c11.2,0,20,8.7,20,20
		C1092.5,771.3,1083.8,780.1,1072.5,780.1z"/>
	<path d="M468.5,760.1c-11.2,0-20-8.7-20-20V545.4c0-11.2,8.7-20,20-20c11.2,0,20,8.7,20,20v194.7
		C487.2,751.4,478.5,760.1,468.5,760.1z"/>
	<path d="M338.7,695.2c-5,0-10-2.5-13.7-6.2c-7.5-7.5-7.5-20,0-27.5l219.7-220.9c7.5-7.5,20-7.5,27.5,0c7.5,7.5,7.5,20,0,27.5
		L352.4,689C348.7,692.7,343.7,695.2,338.7,695.2L338.7,695.2z"/>
	<path d="M701.9,760.1c-11.2,0-20-8.7-20-20V545.4c0-11.2,8.7-20,20-20c11.2,0,20,8.7,20,20v194.7
		C721.8,751.4,713.1,760.1,701.9,760.1z"/>
	<path d="M572.1,695.2c-5,0-10-2.5-13.7-6.2c-7.5-7.5-7.5-20,0-27.5l220.9-220.9c7.5-7.5,20-7.5,27.5,0c7.5,7.5,7.5,20,0,27.5
		L585.8,689C582,692.7,577.1,695.2,572.1,695.2L572.1,695.2z"/>
	<path d="M936.5,760.1c-11.2,0-20-8.7-20-20V545.4c0-11.2,8.7-20,20-20c11.2,0,20,8.7,20,20v194.7
		C955.2,751.4,946.5,760.1,936.5,760.1z"/>
	<path d="M806.7,695.2c-5,0-10-2.5-13.7-6.2c-7.5-7.5-7.5-20,0-27.5l220.9-220.9c7.5-7.5,20-7.5,27.5,0s7.5,20,0,27.5L820.4,689
		C816.7,692.7,811.7,695.2,806.7,695.2L806.7,695.2z"/>
</g>
</svg>
