<?xml version="1.0" encoding="utf-8"?>
<!-- Generator: Adobe Illustrator 18.1.0, SVG Export Plug-In . SVG Version: 6.00 Build 0)  -->
<!DOCTYPE svg PUBLIC "-//W3C//DTD SVG 1.1//EN" "http://www.w3.org/Graphics/SVG/1.1/DTD/svg11.dtd">
<svg version="1.1" id="Layer_1" xmlns="http://www.w3.org/2000/svg" xmlns:xlink="http://www.w3.org/1999/xlink" x="0px" y="0px"
	 viewBox="14.4 -222 1260.1 1260.1" enable-background="new 14.4 -222 1260.1 1260.1" xml:space="preserve">
<circle fill="#FFFFFF" cx="644.4" cy="408.1" r="630.1"/>
<g>
	<path d="M816.1,642.6h-85.8c-7.6,0-15.3,5.7-15.3,15.3c0,7.6,5.7,15.3,15.3,15.3H778c-38.1,22.9-83.9,38.1-131.6,38.1
		c-93.5,0-175.5-51.5-221.2-127.8c68.7,7.6,145,11.4,221.2,11.4s150.7-5.7,221.2-15.3C854.3,602.5,837.1,623.5,816.1,642.6z
		 M390.8,480.5h83.9c7.6,0,15.3-5.7,15.3-15.3c0-7.6-5.7-15.3-15.3-15.3h-85.8c0-22.9,3.8-43.9,7.6-64.8h331.9
		c7.6,0,15.3-5.7,15.3-15.3c0-7.6-5.7-15.3-15.3-15.3H408c9.5-26.7,24.8-49.6,42-72.5l0,0h392.9c17.2,21,32.4,45.8,42,72.5h-87.7
		c-7.6,0-15.3,5.7-15.3,15.3c0,7.6,5.7,15.3,15.3,15.3h95.4l0,0c5.7,21,7.6,42,7.6,64.8c0,28.6-3.8,55.3-13.4,80.1
		C818,541.5,736,549.1,642.6,549.1s-175.5-7.6-244.1-19.1C396.5,514.8,392.7,497.6,390.8,480.5z M814.2,257.3H478.5
		c43.9-38.1,103-62.9,167.8-62.9S768.4,219.2,814.2,257.3z M1161.3,432.8c0-51.5-61-93.5-175.5-124c-11.4-3.8-24.8,3.8-26.7,15.3
		c-3.8,11.4,3.8,24.8,15.3,26.7c97.3,24.8,141.1,59.1,141.1,80.1c0,28.6-64.8,64.8-179.3,89.6c5.7-22.9,9.5-47.7,9.5-72.5
		c0-165.9-133.5-299.4-299.4-299.4S346.9,282.1,346.9,448.1c0,24.8,3.8,49.6,9.5,72.5c-114.4-24.8-179.3-61-179.3-89.6
		c0-22.9,43.9-55.3,145-82c11.4-3.8,19.1-15.3,17.2-26.7c-3.8-11.4-15.3-19.1-26.7-17.2c-120.2,34.3-181.2,76.3-181.2,127.8
		c0,66.8,103,112.5,242.2,139.2c45.8,104.9,150.7,177.4,272.7,177.4s227-72.5,272.7-177.4C1058.4,547.2,1161.3,499.5,1161.3,432.8z"
		/>
	<path d="M968.7,112.4c22.9,0,40.1,19.1,40.1,40.1c0,22.9-19.1,40.1-40.1,40.1c-22.9,0-40.1-19.1-40.1-40.1
		C928.7,129.5,945.8,112.4,968.7,112.4z M968.7,238.3c47.7,0,85.8-38.1,85.8-85.8s-38.1-85.8-85.8-85.8c-47.7,0-85.8,38.1-85.8,85.8
		S921,238.3,968.7,238.3z"/>
</g>
<path d="M848.6,483.3c7.9,0,15.9-5.9,15.9-15.9c0-7.9-5.9-15.9-15.9-15.9H648.4c-7.9,0-15.9,5.9-15.9,15.9c0,7.9,5.9,15.9,15.9,15.9
	H848.6z"/>
</svg>
