<?xml version="1.0" encoding="utf-8"?>
<!-- Generator: Adobe Illustrator 18.1.0, SVG Export Plug-In . SVG Version: 6.00 Build 0)  -->
<!DOCTYPE svg PUBLIC "-//W3C//DTD SVG 1.1//EN" "http://www.w3.org/Graphics/SVG/1.1/DTD/svg11.dtd">
<svg version="1.1" id="Layer_1" xmlns="http://www.w3.org/2000/svg" xmlns:xlink="http://www.w3.org/1999/xlink" x="0px" y="0px"
	 viewBox="15.3 -222 1260.1 1260.1" enable-background="new 15.3 -222 1260.1 1260.1" xml:space="preserve">
<circle fill="#FFFFFF" cx="645.3" cy="408" r="630.1"/>
<g>
	<g>
		<rect x="418" y="651.3" transform="matrix(0.9811 0.1936 -0.1936 0.9811 148.2898 -70.5515)" width="34.3" height="144.2"/>
		<g>
			<path d="M643.6,555.7c67,0,133.9,0,221.5,1.7V210.6c-91-18.9-157.9-27.5-221.5-27.5s-130.5,8.6-221.5,27.5l1.7,346.8
				C509.7,555.7,576.7,555.7,643.6,555.7L643.6,555.7z M882.3,591.7L882.3,591.7c-190.6-1.7-285-1.7-475.5,0c-3.4,0-8.6-1.7-12-5.2
				s-5.2-8.6-5.2-12V196.9c0-8.6,5.2-15.5,13.7-17.2c99.6-22.3,171.7-30.9,242.1-30.9c68.7,0,140.8,8.6,242.1,30.9
				c8.6,1.7,13.7,8.6,13.7,17.2v377.7c0,5.2-1.7,8.6-5.2,12C890.8,590,887.4,591.7,882.3,591.7z"/>
			<path d="M847.9,200.3c-8.6,0-17.2-6.9-17.2-17.2V61.3c-61.8-13.7-121.9-18.9-187.1-18.9c-73.8,0-151.1,6.9-185.4,17.2v125.3
				c0,8.6-6.9,17.2-17.2,17.2s-17.2-6.9-17.2-17.2V47.5c0-6.9,3.4-13.7,10.3-15.5C472,16.6,568.1,8,643.6,8
				c72.1,0,137.3,6.9,207.7,22.3c8.6,1.7,13.7,8.6,13.7,17.2v137.3C865.1,193.4,858.2,200.3,847.9,200.3z"/>
			<path d="M423.9,629.5L645.3,693l221.5-63.5v-37.8H423.9V629.5z M643.6,727.3c-1.7,0-3.4,0-5.2,0l-238.6-68.7
				c-5.2-1.7-10.3-8.6-10.3-17.2v-68.7c0-8.6,6.9-17.2,17.2-17.2h475.5c8.6,0,17.2,6.9,17.2,17.2v68.7c0,6.9-5.2,13.7-12,15.5
				l-238.6,68.7C647.1,727.3,645.3,727.3,643.6,727.3z"/>
			<rect x="628.2" y="13.2" width="34.3" height="135.6"/>
			<rect x="772.3" y="696" transform="matrix(0.1939 0.981 -0.981 0.1939 1380.3317 -253.4997)" width="144.2" height="34.3"/>
			<rect x="458.2" y="591.7" width="34.3" height="68.7"/>
			<rect x="525.2" y="591.7" width="34.3" height="101.3"/>
			<rect x="593.8" y="591.7" width="34.3" height="101.3"/>
			<rect x="660.8" y="591.7" width="34.3" height="101.3"/>
			<rect x="729.5" y="591.7" width="34.3" height="101.3"/>
			<rect x="798.1" y="591.7" width="34.3" height="68.7"/>
		</g>
	</g>
	<path d="M645.3,298.2c20.6,0,36.1,17.2,36.1,36.1c0,20.6-17.2,36.1-36.1,36.1c-20.6,0-36.1-17.2-36.1-36.1
		C609.3,315.3,624.7,298.2,645.3,298.2z M645.3,413.2c42.9,0,77.3-34.3,77.3-77.3s-34.3-77.3-77.3-77.3s-77.3,34.3-77.3,77.3
		S602.4,413.2,645.3,413.2z"/>
	<circle cx="858.2" cy="782.3" r="17.2"/>
	<circle cx="422.2" cy="790.9" r="17.2"/>
</g>
</svg>
